<?xml version="1.0" encoding="utf-8"?>
<!-- Generator: Adobe Illustrator 18.0.0, SVG Export Plug-In . SVG Version: 6.00 Build 0)  -->
<!DOCTYPE svg PUBLIC "-//W3C//DTD SVG 1.1//EN" "http://www.w3.org/Graphics/SVG/1.1/DTD/svg11.dtd">
<svg version="1.1" id="Warstwa_1" xmlns="http://www.w3.org/2000/svg" xmlns:xlink="http://www.w3.org/1999/xlink" x="0px" y="0px"
	 viewBox="0 0 177 94" enable-background="new 0 0 177 94" xml:space="preserve">
<path fill-rule="evenodd" clip-rule="evenodd" fill="#FFFFFF" d="M144.5,94c-9.9,0-18.8-4.4-24.7-11.4C115.2,89.5,107.4,94,98.5,94
	c-7,0-13.3-2.8-17.9-7.3C79.5,86.9,78.2,87,77,87c-6.2,0-11.9-2.6-15.9-6.8C56.6,85,50.1,88,43,88c-10.7,0-19.8-6.7-23.4-16.1
	C19.1,72,18.6,72,18,72C8.1,72,0,63.7,0,53.5C0,43.3,8.1,35,18,35c1.4,0,2.8,0.2,4.1,0.5c1-8.7,8.4-15.5,17.4-15.5
	c6.1,0,11.4,3.1,14.5,7.8c1.8-2.8,4.4-5.1,7.4-6.7C63.5,9.1,73.9,0,86.5,0c11.2,0,20.7,7.2,24.1,17.2c3-1.4,6.4-2.2,9.9-2.2
	c9.6,0,17.9,5.8,21.5,14.1c0.8-0.1,1.6-0.1,2.5-0.1c17.9,0,32.5,14.6,32.5,32.5C177,79.4,162.4,94,144.5,94z"/>
</svg>
