<?xml version="1.0" encoding="utf-8"?>
<!-- Generator: Adobe Illustrator 18.0.0, SVG Export Plug-In . SVG Version: 6.00 Build 0)  -->
<!DOCTYPE svg PUBLIC "-//W3C//DTD SVG 1.1//EN" "http://www.w3.org/Graphics/SVG/1.1/DTD/svg11.dtd">
<svg version="1.1" id="Warstwa_1" xmlns="http://www.w3.org/2000/svg" xmlns:xlink="http://www.w3.org/1999/xlink" x="0px" y="0px"
	 viewBox="0 0 265 144" enable-background="new 0 0 265 144" xml:space="preserve">
<g>
	<g>
		<path fill="#47BAEB" d="M67.9,6.6c-2.5-2-7.7,0.7-8.9,3.2c-3.2,12.9,5.1,27.1-3.8,38c-0.7,0.6-2.6-2.6-2.6-3.8
			c-3.2-9.8-11.6-24.6-20.7-13.6c-5.8,7-6.4,17.4-12.7,24.6c-3.9-4.5-3.8-10.4-5.1-16.1c-2-8.4,3.3-16.9-1.3-23.9
			C9.8,10.6,2.5,14.5,1.2,19c-3.2,17.4,0,36.1,10.3,50.2c16.1,3.8,19.3-16.7,26.3-26.5c3.3,4.5,5.1,8.4,7.7,13.6
			c3.2,6.4,8.9,12.8,16.1,7c2.5-2,3.8-5,5.1-7.6c3.2-8.4,5.1-16.7,5.1-25.2C71.8,22.1,75,12.5,67.9,6.6z M89.6,28.6
			c-3.7-1.6-8-0.5-9.6,2.7c-2.2,4.3-2.2,9.2-2.2,14.1c0,6.9-1.6,14.4,0.5,21.4c1.2,3.8,5.9,3.3,9.7,2.2c0.5,0,1.1-1.1,1.1-1.6
			c1.6-5.9-2.1-11.4,0-17.2c1.6-4.8-0.6-10.3,3.2-15.6C94.4,32.4,91.8,29.6,89.6,28.6z M90.3,19.7c2.2-1.2,5.5-6.7,3.3-10.1
			c-2.2-3.2-7.2-3.3-11-1.1c-1.7,1.1-3.7,6.5-1.7,9C83.7,20.7,87.5,21.1,90.3,19.7z M112.1,44.8c3.6,6.5,2.8,42.3,5.4,49.3
			c1,3.1,2.2,3.9,5.1,3.9c2.5,0,4.2-1.8,4.3-4.2c0.5-7.7-3.6-41.7-2.5-49.4c6.5,0,17.6,0.9,19.5-5.1c2.3-7.7-10.7-4.7-17.4-4
			c0-8.4,1.2-17.4,4.8-25.2c0.6-1.7,0-3.5-0.6-4.2c-4.7-2.9-12.4-2.9-13,2.9c-0.5,4.2-1.2,8.3-1.8,12.6c-0.6,4.2,0,9.6-2.3,12.6
			c-2.9,3.5-9.6,2.9-14.2,5.3c-1.8,1.2-3.7,3.7-3.1,5.4C98.5,51.3,107.4,48.4,112.1,44.8z M206.7,24.2c-1.5-4.4-9.3-3.9-10.3-1
			c-4.4,13.3,2.2,26.8,1,40.1c-0.7,7.8-1.5,17.2-8.8,22.1c-1,0-2-0.5-2.9-1c-1.8-1.8-2.4-5.7-5.4-5.5c2.9-3.3,3.4-13.6,3.7-19
			c0.9-11.5,6.7-21.9,1.8-32.4c-5.5-11.6-23.9-8.2-32.7-2.1c-1.1,1.1,0,11.1,4.9,9.4c6.5-2.2,11-5.5,18.4-3.9c2.7,0.5,2,6,0.9,7.7
			c-0.2,0.4-17.6-3.8-27.5,9.6c-3.1,4-4.4,12.8-1.1,17.2c4.9,8.3,14.8,7.7,23.5,9.4c1.7,0,1.8,3.1,3.9,4.4c0.5,0.3,1,0.6,1.4,0.7
			c-2.1,1.2-3.5,3.4-2.5,6.1c2.7,7.8,13.1,10.3,19.2,5.9c19.2-13.9,12.7-38.5,11.8-58.8C205.2,30.1,207.2,27.1,206.7,24.2z
			 M173.7,64.2c-1,2.3-18.4-0.4-18.2-5.8c0.2-10.6,12.6-8.5,19.8-11.2C178,53.7,174.8,57.9,173.7,64.2z M203.4,14.2
			c3.4-2.3,3.7-7.7,1.3-11.4c-2.5-3.8-8-3.5-11.5-0.5c-2,1.7-3.1,4.5-0.6,9.4C195,16.4,199.4,16.7,203.4,14.2z M17.7,112.4
			c-5.5-1.6-7.7,3.2-10.2,7.4c0,0.4-0.4-0.6-0.7-0.9c0-2,1.2-3.9,0.7-5.8c-0.8-2.6-5.1-2.7-6-0.4c-1.3,3.5-0.3,8.4-0.3,12.6
			c0,3.2-0.8,6.7,0.3,9.7c0.9,2.3,4.2,2,5.3,0c3-5.1,3.6-11,7.4-15.2c1.3,6.1,0.6,12.3,1.6,18.7c0.3,2,3.2,1.2,5.2,0.7
			c1.3-0.4,1.3-2.6,1-3.9C21.6,127.6,21.9,119.3,17.7,112.4z M30.7,110.1c-0.7,0.7,0,6.8,3,5.8c4-1.4,6.8-3.4,11.3-2.4
			c1.7,0.3,1.2,3.7,0.5,4.8c-0.2,0.2-10.9-2.3-17.1,5.9c-1.9,2.5-2.7,8-0.7,10.7c3,5.1,9.1,4.8,14.5,5.8c1.1,0,1.1,1.9,2.4,2.7
			c4.2,2.8,4.6-7.3,4.9-12c0.5-7,4.2-13.6,1.1-20C47.5,104.3,36.1,106.4,30.7,110.1z M43.4,134.3c-0.6,1.4-11.3-0.2-11.2-3.6
			c0.2-6.5,7.8-5.2,12.2-6.9C46.1,127.7,44.1,130.3,43.4,134.3z M76,114.8c5.8-3.6,11.1,5.5,15,3c0.8-0.5,1.8-2.7,1.2-3.9
			c-1.8-3.6-6.3-4.5-10-6.1c-5-2.2-17.1,5.1-14,11.2c2.4,5.1,8.3,6.4,13.4,8.7c1.4,0.6,3.5,2.3,3.5,3.3c0,4.3-6.2,6.2-9.8,4.4
			c-1.4-0.7-1.7-3.6-3.5-3.4c-2.1,0.2-4.6,2.5-3.6,4.6c4.6,9.5,18.6,5.8,22.6-0.8c1.6-2.7,2.4-6.7,0.2-9c-3.6-3.3-7.4-4.9-12-6.6
			C77.4,119.8,73.8,116.2,76,114.8z M131.5,112.9c-1.7,5.6,1.2,12.3-2.6,18.8c-0.5,0.8-1.4,2.2-2.1,1.7c-3.9-2.5-4.3-8.4-7.9-11.6
			c-2-1.9-3.5-1.6-5.5,0.3c-2.8,2.8-3.3,6.5-5.6,10c-0.3,0.5-1.4,2.3-2.6,0.8c-1.9-2.4-1.9-5.7-2.7-8.7c-1.4-5.7,1.9-11.9-1.5-16.2
			c-1.7-2.2-6.2-1.5-6.6,1.9c-0.9,10.4-1.4,21.2,5.2,29.9c2,2.7,6.9,2.1,9.9,0.4c3-1.7,5.3-8,6.4-7.7c1.2,0.2,3,5.5,6,6.9
			c3.5,1.7,6.9,0.8,9.5-0.8c7.7-5.2,7.9-14.9,6.9-23.8C138,110.7,132.3,110.4,131.5,112.9z M145,99.7c-1.1,0.7-2.3,4-1.1,5.5
			c1.7,2,4.1,2.3,5.8,1.4c1.4-0.8,3.4-4.2,2-6.2C150.5,98.4,147.4,98.4,145,99.7z M149.4,112.2c-2.3-1-4.9-0.3-5.9,1.7
			c-1.4,2.7-1.4,5.6-1.4,8.7c0,4.2-1,9,0.3,13.3c0.8,2.3,3.6,2,6,1.4c0.3,0,0.7-0.7,0.7-1c1-3.6-1.3-7,0-10.7c1-3-0.4-6.3,2-9.7
			C152.3,114.5,150.7,112.8,149.4,112.2z M166.1,130.9c2.9-2.7,11.4-5.8,12.6-9.6c0.1-6.4-5.3-12.2-11.2-13c-7.4-1.1-13,4.4-12.8,12
			c0.2,7.3,1.8,15.9,9.4,19.4c3.6,1.6,7.4,0.7,10.8,0.2c3.1-0.5,4.6-5,1.8-7c-4.2,2.2-9.1,4.2-11.8-0.4
			C164.5,131.7,165.8,130.9,166.1,130.9z M162.9,124.3c-1.8-0.2-2.8-7.2,0.5-9c3-1.6,9.3,0.4,7.7,4.2
			C170,123.1,166.5,124.1,162.9,124.3z M205.7,129.6c-3.3,0.2-6,5.6-10,4.1c-2.7-1-5.4-1.3-7-3.8c-1.4-2-1.7-4.9-1.6-7
			c0.2-3.7,2.9-6.7,5.9-9.2c3.6-2.7,7.9-2.3,9.5-7c0.5-1.6-0.1-2.6-1-3c-5.8-2.6-11.2,2.9-15.4,6.6c-3.3,3-5.5,6.7-6.3,11.8
			c-1.2,7.5,2.5,14.7,9.6,16.7c5.8,1.7,12.9,2.5,16.8-3.3C206.9,134.2,209,129.3,205.7,129.6z M218,112.2c-2.3-1-4.9-0.3-5.9,1.7
			c-1.4,2.7-1.4,5.6-1.4,8.7c0,4.2-1,9,0.3,13.3c0.8,2.3,3.6,2,6,1.4c0.3,0,0.7-0.7,0.7-1c1-3.6-1.3-7,0-10.7c1-3-0.4-6.3,2-9.7
			C221,114.5,219.4,112.8,218,112.2z M213.7,99.7c-1.1,0.7-2.3,4-1.1,5.5c1.7,2,4.1,2.3,5.8,1.4c1.4-0.8,3.4-4.2,2-6.2
			C219.1,98.4,216,98.4,213.7,99.7z M234.8,130.9c2.9-2.7,11.4-5.8,12.6-9.6c0.1-6.4-5.3-12.2-11.2-13c-7.4-1.1-13,4.4-12.8,12
			c0.2,7.3,1.8,15.9,9.4,19.4c3.6,1.6,7.4,0.7,10.8,0.2c3.1-0.5,4.6-5,1.8-7c-4.2,2.2-9.1,4.2-11.8-0.4
			C233.1,131.7,234.5,130.9,234.8,130.9z M231.6,124.3c-1.8-0.2-2.8-7.2,0.5-9c3-1.6,9.3,0.4,7.7,4.2
			C238.7,123.1,235.2,124.1,231.6,124.3z M258.4,95.2c-3,9-4.3,17.3-5.5,26.6c-0.3,2.7-2,6.1,1.4,7.4c1.9,0.8,3.9,1.3,3.9-0.6
			c1.6-11.2,5.8-22.2,6.8-33C265.2,92.9,259.6,91.8,258.4,95.2z M256.8,133.1c-0.4,0-1.1-0.1-1.5-0.4c-2.7-1.9-6.5,0-6.5,3
			c0.8,3.5,2.7,7.8,6.9,5.4C258.8,139.4,256.4,136.2,256.8,133.1z"/>
	</g>
	<g>
		<path fill="#47BAEB" d="M77,104.4c-2.7,0.7-0.5-5.7-0.2-7.7c0.5-3.3,4.1-2.8,5.3-1.4C83.1,96.5,79.1,103.9,77,104.4z"/>
	</g>
</g>
</svg>
