<?xml version="1.0" encoding="utf-8"?>
<!-- Generator: Adobe Illustrator 18.0.0, SVG Export Plug-In . SVG Version: 6.00 Build 0)  -->
<!DOCTYPE svg PUBLIC "-//W3C//DTD SVG 1.1//EN" "http://www.w3.org/Graphics/SVG/1.1/DTD/svg11.dtd">
<svg fill="#42b9eb" version="1.1" id="Warstwa_1" xmlns="http://www.w3.org/2000/svg" xmlns:xlink="http://www.w3.org/1999/xlink" x="0px" y="0px"
	 viewBox="0 0 265 144" enable-background="new 0 0 265 144" xml:space="preserve">
<g>
	<path d="M67.8,6.6c-2.5-2-7.7,0.7-8.9,3.2c-3.2,12.8,5.1,26.9-3.8,37.8c-0.7,0.6-2.6-2.6-2.6-3.8c-3.2-9.7-11.6-24.4-20.6-13.5
		c-5.8,7-6.4,17.3-12.7,24.4c-3.9-4.5-3.8-10.3-5.1-16c-2-8.3,3.3-16.8-1.3-23.7c-2.9-4.5-10.2-0.6-11.5,3.9
		c-3.2,17.3,0,35.9,10.3,49.9c16,3.8,19.2-16.6,26.2-26.3c3.3,4.5,5.1,8.3,7.7,13.5c3.2,6.4,8.9,12.7,16,7c2.5-2,3.8-5,5.1-7.6
		c3.2-8.3,5.1-16.6,5.1-25C71.7,22,74.9,12.4,67.8,6.6z M89.4,28.4c-3.7-1.6-8-0.5-9.6,2.7c-2.2,4.3-2.2,9.1-2.2,14
		c0,6.9-1.6,14.3,0.5,21.3c1.2,3.8,5.9,3.3,9.7,2.2c0.5,0,1.1-1.1,1.1-1.6c1.6-5.9-2.1-11.3,0-17.1c1.6-4.8-0.6-10.2,3.2-15.5
		C94.2,32.2,91.6,29.4,89.4,28.4z M90.1,19.6c2.2-1.2,5.5-6.7,3.3-10c-2.2-3.2-7.2-3.3-11-1.1c-1.7,1.1-3.7,6.5-1.7,8.9
		C83.5,20.6,87.3,21,90.1,19.6z M111.8,44.5c3.6,6.5,2.8,42,5.4,49c1,3.1,2.2,3.9,5.1,3.9c2.5,0,4.2-1.8,4.3-4.2
		c0.5-7.7-3.6-41.4-2.5-49.1c6.5,0,17.5,0.9,19.4-5.1c2.3-7.7-10.7-4.7-17.3-4c0-8.3,1.2-17.3,4.8-25c0.6-1.7,0-3.5-0.6-4.2
		c-4.7-2.9-12.4-2.9-13,2.9c-0.5,4.2-1.2,8.2-1.8,12.5c-0.6,4.2,0,9.5-2.3,12.5c-2.9,3.5-9.6,2.9-14.2,5.3c-1.8,1.2-3.7,3.7-3.1,5.4
		C98.3,51,107.1,48.1,111.8,44.5z M206.1,24c-1.5-4.4-9.3-3.9-10.3-1c-4.4,13.2,2.2,26.6,1,39.8c-0.7,7.8-1.5,17.1-8.8,22
		c-1,0-2-0.5-2.9-1c-1.8-1.8-2.4-5.7-5.4-5.5c2.9-3.3,3.4-13.5,3.7-18.9c0.9-11.4,6.7-21.8,1.8-32.2c-5.5-11.5-23.8-8.1-32.6-2.1
		c-1.1,1.1,0,11,4.9,9.3c6.5-2.2,11-5.5,18.3-3.9c2.7,0.5,2,6,0.9,7.7c-0.2,0.4-17.5-3.8-27.4,9.5c-3.1,4-4.4,12.7-1.1,17.1
		c4.9,8.2,14.7,7.7,23.4,9.3c1.7,0,1.8,3.1,3.9,4.4c0.5,0.3,1,0.6,1.4,0.7c-2.1,1.2-3.5,3.4-2.5,6.1c2.7,7.8,13.1,10.2,19.1,5.9
		c19.1-13.8,12.7-38.3,11.8-58.4C204.6,29.9,206.6,26.9,206.1,24z M173.2,63.8c-1,2.3-18.3-0.4-18.1-5.8
		c0.2-10.5,12.6-8.4,19.7-11.1C177.5,53.4,174.3,57.5,173.2,63.8z M202.8,14.1c3.4-2.3,3.7-7.7,1.3-11.3c-2.5-3.8-8-3.5-11.5-0.5
		c-2,1.7-3.1,4.5-0.6,9.3C194.4,16.3,198.8,16.6,202.8,14.1z M17.8,111.7c-5.5-1.6-7.7,3.2-10.2,7.4c0,0.4-0.4-0.6-0.7-0.9
		c0-2,1.2-3.9,0.7-5.8c-0.8-2.6-5.1-2.7-6-0.4c-1.3,3.5-0.3,8.3-0.3,12.5c0,3.2-0.8,6.7,0.3,9.6c0.9,2.3,4.2,2,5.3,0
		c3-5.1,3.6-10.9,7.4-15.1c1.3,6.1,0.6,12.2,1.6,18.6c0.3,2,3.2,1.2,5.2,0.7c1.3-0.4,1.3-2.6,1-3.9
		C21.6,126.8,21.9,118.5,17.8,111.7z M30.7,109.4c-0.7,0.7,0,6.8,3,5.8c4-1.4,6.8-3.4,11.3-2.4c1.7,0.3,1.2,3.7,0.5,4.8
		c-0.2,0.2-10.9-2.3-17,5.9c-1.9,2.5-2.7,7.9-0.7,10.6c3,5.1,9.1,4.8,14.5,5.8c1.1,0,1.1,1.9,2.4,2.7c4.2,2.8,4.6-7.3,4.9-11.9
		c0.5-7,4.2-13.5,1.1-19.9C47.4,103.6,36.1,105.7,30.7,109.4z M43.4,133.4c-0.6,1.4-11.3-0.2-11.2-3.6c0.2-6.5,7.8-5.2,12.2-6.9
		C46.1,126.9,44.1,129.5,43.4,133.4z M75.9,114.1c5.8-3.6,11.1,5.5,14.9,3c0.8-0.5,1.8-2.7,1.2-3.9c-1.8-3.6-6.3-4.5-10-6.1
		c-5-2.2-17,5.1-14,11.1c2.4,5.1,8.3,6.4,13.4,8.6c1.4,0.6,3.5,2.3,3.5,3.3c0,4.3-6.2,6.2-9.8,4.4c-1.4-0.7-1.7-3.6-3.5-3.4
		c-2.1,0.2-4.6,2.5-3.6,4.6c4.6,9.4,18.5,5.8,22.5-0.8c1.6-2.7,2.4-6.7,0.2-8.9c-3.6-3.3-7.4-4.9-12-6.6
		C77.2,119,73.7,115.5,75.9,114.1z M131.2,112.2c-1.7,5.6,1.2,12.2-2.6,18.7c-0.5,0.8-1.4,2.2-2.1,1.7c-3.9-2.5-4.3-8.3-7.9-11.5
		c-2-1.9-3.5-1.6-5.5,0.3c-2.8,2.8-3.3,6.5-5.6,9.9c-0.3,0.5-1.4,2.3-2.6,0.8c-1.9-2.4-1.9-5.7-2.7-8.6c-1.4-5.7,1.9-11.8-1.5-16.1
		c-1.7-2.2-6.2-1.5-6.6,1.9c-0.9,10.3-1.4,21.1,5.2,29.7c2,2.7,6.9,2.1,9.9,0.4c3-1.7,5.3-7.9,6.4-7.7c1.2,0.2,3,5.5,6,6.9
		c3.5,1.7,6.9,0.8,9.5-0.8c7.7-5.2,7.9-14.8,6.9-23.6C137.6,110,132,109.7,131.2,112.2z M144.6,99.1c-1.1,0.7-2.3,4-1.1,5.5
		c1.7,2,4.1,2.3,5.8,1.4c1.4-0.8,3.4-4.2,2-6.2C150.1,97.8,147,97.8,144.6,99.1z M149,111.5c-2.3-1-4.9-0.3-5.9,1.7
		c-1.4,2.7-1.4,5.6-1.4,8.6c0,4.2-1,8.9,0.3,13.2c0.8,2.3,3.6,2,6,1.4c0.3,0,0.7-0.7,0.7-1c1-3.6-1.3-7,0-10.6c1-3-0.4-6.3,2-9.6
		C151.9,113.8,150.3,112.1,149,111.5z M165.6,130.1c2.9-2.7,11.4-5.8,12.6-9.5c0.1-6.4-5.3-12.1-11.2-12.9
		c-7.4-1.1-13,4.4-12.8,11.9c0.2,7.3,1.8,15.8,9.4,19.3c3.6,1.6,7.4,0.7,10.8,0.2c3.1-0.5,4.6-5,1.8-7c-4.2,2.2-9.1,4.2-11.8-0.4
		C164,130.9,165.3,130.1,165.6,130.1z M162.5,123.5c-1.8-0.2-2.8-7.2,0.5-8.9c3-1.6,9.3,0.4,7.7,4.2
		C169.5,122.3,166,123.3,162.5,123.5z M205.1,128.8c-3.3,0.2-6,5.6-10,4.1c-2.7-1-5.4-1.3-7-3.8c-1.4-2-1.7-4.9-1.6-7
		c0.2-3.7,2.9-6.7,5.9-9.1c3.6-2.7,7.9-2.3,9.5-7c0.5-1.6-0.1-2.6-1-3c-5.8-2.6-11.2,2.9-15.3,6.6c-3.3,3-5.5,6.7-6.3,11.7
		c-1.2,7.5,2.5,14.6,9.6,16.6c5.8,1.7,12.9,2.5,16.7-3.3C206.3,133.3,208.4,128.5,205.1,128.8z M217.4,111.5c-2.3-1-4.9-0.3-5.9,1.7
		c-1.4,2.7-1.4,5.6-1.4,8.6c0,4.2-1,8.9,0.3,13.2c0.8,2.3,3.6,2,6,1.4c0.3,0,0.7-0.7,0.7-1c1-3.6-1.3-7,0-10.6c1-3-0.4-6.3,2-9.6
		C220.4,113.8,218.8,112.1,217.4,111.5z M213.1,99.1c-1.1,0.7-2.3,4-1.1,5.5c1.7,2,4.1,2.3,5.8,1.4c1.4-0.8,3.4-4.2,2-6.2
		C218.5,97.8,215.4,97.8,213.1,99.1z M234.1,130.1c2.9-2.7,11.4-5.8,12.6-9.5c0.1-6.4-5.3-12.1-11.2-12.9c-7.4-1.1-13,4.4-12.8,11.9
		c0.2,7.3,1.8,15.8,9.4,19.3c3.6,1.6,7.4,0.7,10.8,0.2c3.1-0.5,4.6-5,1.8-7c-4.2,2.2-9.1,4.2-11.8-0.4
		C232.4,130.9,233.8,130.1,234.1,130.1z M230.9,123.5c-1.8-0.2-2.8-7.2,0.5-8.9c3-1.6,9.3,0.4,7.7,4.2
		C238,122.3,234.5,123.3,230.9,123.5z M257.6,94.6c-3,8.9-4.3,17.2-5.5,26.4c-0.3,2.7-2,6.1,1.4,7.4c1.9,0.8,3.9,1.3,3.9-0.6
		c1.6-11.1,5.8-22.1,6.8-32.8C264.4,92.3,258.8,91.2,257.6,94.6z M256,132.3c-0.4,0-1.1-0.1-1.5-0.4c-2.7-1.9-6.5,0-6.5,3
		c0.8,3.5,2.7,7.8,6.9,5.4C258,138.5,255.6,135.3,256,132.3z"/>
</g>
</svg>
