<?xml version="1.0" encoding="utf-8"?>
<!-- Generator: Adobe Illustrator 18.0.0, SVG Export Plug-In . SVG Version: 6.00 Build 0)  -->
<!DOCTYPE svg PUBLIC "-//W3C//DTD SVG 1.1//EN" "http://www.w3.org/Graphics/SVG/1.1/DTD/svg11.dtd">
<svg version="1.1" id="Warstwa_1" xmlns="http://www.w3.org/2000/svg" xmlns:xlink="http://www.w3.org/1999/xlink" x="0px" y="0px"
	 viewBox="0 0 208 145" enable-background="new 0 0 208 145" xml:space="preserve">
<g>
	<path opacity="0.4" fill="#163039" d="M207.7,34.3c-0.5-1.7-2.2-3.8-4.6-4.3l-4.6-1l1.2,2.8c-0.9-0.4-1.8-0.8-2.9-0.9
		c-1.5-0.2-3,0.3-4.2,1.3c-2.1-0.9-4.5-1.4-7.1-1.4c-1.2,0-2.4,0.1-3.7,0.3c-0.1-0.1-0.1-0.2-0.2-0.2c-0.9-1-2.3-1.6-4.1-1.6
		c-1,0-2.1,0.2-3.1,0.5c-1.8,0.5-3.3,1.4-4.4,2.4c-0.7-1.1-2-1.7-3.3-1.5c-0.4-0.8-0.9-1.5-1.6-2c-1.1-0.9-2.4-1.3-3.9-1.3
		c-1.3,0-2.7,0.4-4.1,1c-0.3,0.2-0.6,0.3-0.9,0.5c-0.7-2.2-1.3-4.4-1.8-6.5c0-0.1,0.1-0.2,0.1-0.3l0.8-0.5c0.9-0.6,2.8-2,4.6-3.4
		c0.9-0.7,1.7-1.3,2.3-1.8c1.1-0.9,2.2-1.7,1.8-3.3l-0.4-1.6l-1.7-0.3l-0.4,0c-0.3,0-0.5,0-1,0.2c0.1-0.3,0.1-0.6,0.2-0.9
		c0.2-1.4,0.6-4.8-0.9-6.6c-0.7-0.8-1.6-1.2-2.6-1.2c-0.2,0-0.5,0-0.8,0.1c-2.7,0.6-4.2,3.3-5.2,5.2c-0.1,0.2-0.2,0.4-0.3,0.5
		c-0.9,1.5-1.7,3.1-2.4,4.9c-1-2.3-2.5-4.5-4.1-6.1c-1.3-1.3-3.1-2-4.7-2c-2.1,0-3.9,1.1-4.8,3.1c-1.9,3.9,1.4,7.9,2.7,9.5
		c0.7,0.8,1.4,1.6,2.1,2.3c-5.5,2.3-11,4.6-14.9,6.2c-1.5,0.6-2.8,1.2-3.8,1.6c-1.9-1.6-5.2-2.8-8.1-2.8c-1.9,0-3.7,0.4-5.3,1.3
		c-7,4-10.6,10.2-9.8,16.9c0.3,2.5,1.1,5.1,1.8,7.6c0.4,1.4,0.8,2.7,1.1,4c0.8,3.6,1.6,7.5,1.6,11.5c0,3.3-0.4,6.9-1.2,10.6
		c-0.1,0.4-0.2,0.9-0.4,1.5c-0.4-0.7-0.8-1.5-1.2-2.2c-2.8-4.4-6.8-6.1-10.6-7.7c-0.5-0.2-1-0.4-1.5-0.6c-5.2-2.3-9.4-4.3-13.1-6.4
		c-3.8-2.1-7.4-4.6-10.8-7.1c-1.4-1-2.8-1.9-4.2-2.9c-2-1.3-4-2.7-5.9-4.2c-2.4-1.9-4.6-4.1-6.8-6.3c-2.1-2.1-4.3-4.3-6.7-6.3
		c-1.5-1.2-3.4-2.6-5.4-2.8c-1.5-0.1-2.9,0.4-3.9,1.4c-1.6,1.7-1.7,4.3-1.7,5.8c0.1,2.1,0.6,4.1,1.6,6.2c-1.5,0-2.7,0.5-3.6,1.4
		c-0.9,1-1.4,2.4-1.2,4.2c0.3,4.6,3.1,8.4,6.1,11.9c0.9,1,1.9,2,3,3.1c-1,0.5-1.6,1.1-1.9,1.7c-0.6,1-1.1,2.7,0.1,5.1
		c0.3,0.5,0.6,1,0.9,1.5c-0.1,0-0.1,0-0.2,0c-2.9,0.7-5,3.4-5.9,5.9c-0.1,0.2-0.2,0.3-0.2,0.5c-2.2,7.3,0.8,15.4,9.1,24.1
		c3.8,4,7.9,7.4,12.2,10.3c2.2,1.4,4.4,2.7,6.7,3.8c-0.5,0.1-0.9,0.2-1.4,0.3c-3,0.6-6.2,0.9-9.3,1.2c-0.9,0.1-1.9,0.2-2.8,0.3
		c-5.3,0.5-13.6,1-18.9,1c-0.7,0-1.4,0-1.9,0c0.1-0.1,0.1-0.2,0.2-0.2c1-1.4,2.6-3.5,1.8-6.1c-0.4-1.2-1.5-2-2.7-2
		c-0.2,0-0.5,0-0.7,0.1c-2.7,0.7-4.8,2.6-5.7,5.3c-0.3,1-0.5,2-0.6,3.1c-0.4,0.1-0.8,0.2-1.2,0.3c-1.8,0.4-3.7,0.9-5.6,1.5
		c-1.5,0.5-3.1,1.3-4.3,2.3c-2,1.6-1.9,3.2-1.6,4c0.2,0.5,0.5,1.1,1.2,1.6c0,0.3,0,0.7,0,1c0.1,0.9,0.6,1.7,1.4,2.1
		c-0.9,0.5-1.7,1.2-2.4,1.8c-1.7,1.6-1.6,3.1-1.3,4c0.2,0.5,0.6,1.1,1.4,1.6c0,0.3,0,0.7,0.1,1c0.3,1.3,1.4,2.3,2.8,2.3h0l0.1,0
		c3.7-0.1,6.1-2.4,8.2-4.3c1.6-1.5,3-2.8,4.7-3l0.4-0.1l0,0c3.9-0.6,7.8-1.1,11.7-1.5c11.3-1.4,22.9-2.8,33.9-6.7
		c0.4,0.2,0.9,0.4,1.4,0.4c0.5,0.1,1,0.1,1.5,0.1c2.8,0,5.6-1.3,7.9-2.3l0.6-0.3c7.3-3.3,13.2-6.3,18-9.2c4.1-2.5,7.5-6.1,10.2-9.3
		c6.5-7.6,11-15.8,12.9-23.9c1-4.2,1.5-8.5,1.9-12.7c0.3,1.4,0.7,2.8,1.3,4.2c1.4,3.4,5.3,4.2,7.1,4.6c1,0.2,1.9,0.3,2.9,0.4
		c0.3,0,0.5,0,0.8,0.1c1.4,1.8,3.7,2.1,5.3,2.2l0.2,0c2.2,0.2,4.3,0.9,6.6,1.6c2.4,0.8,4.9,1.6,7.6,1.9c0.6,0.1,1.2,0.1,1.8,0.1
		c3.6,0,7.4-1,12-3.3c0.3-0.1,0.6-0.3,0.9-0.5c3.3-1.6,7.4-3.5,9.2-7c0-0.1,0.1-0.1,0.1-0.2c0.2-0.2,0.3-0.3,0.5-0.5
		c1.2,0.6,2.5,1,3.7,1.4c1.6,0.5,3.8,1.2,5.9,1.2c0.7,0,1.4-0.1,2-0.2c1.7,1.4,4.3,2.2,6.8,2.2c2.7,0,5-1,6.3-2.7
		c1.8-2.3,1.8-6.3,0.7-8.6c-0.4-0.8-1.4-2.1-3.8-2.4c0.4-0.3,0.9-0.6,1.3-1.1c1.3-1.4,2-3.3,2-5.1c0-0.8-0.2-1.5-0.5-2.1
		c0.7-1.2,1.3-2.5,1.8-3.9c1.1-3,1.2-6.4,0.5-9.8c1.4-0.2,2.6-0.8,3.6-1.6C206.8,41.4,208.7,37.6,207.7,34.3z M186.7,66.8
		c-0.1,0.1-0.2,0.2-0.3,0.4c-0.1-0.1-0.3-0.2-0.4-0.2C186.3,66.9,186.5,66.9,186.7,66.8z M166.8,42.7c-0.2-0.7-0.2-1.3-0.1-1.7
		c0.3-0.4,0.6-0.7,1-1.1c0.3-0.3,0.5-0.5,0.8-0.8c0,0.1,0,0.1,0,0.2C167.8,40.3,167.2,41.5,166.8,42.7z M38.5,127.8
		c-5.9,1.1-14.3,2.2-18.8,2.5c0.1-0.1,0.1-0.2,0.2-0.3c0.3-0.5,0.6-1,0.9-1.6c3.3-0.2,6.7-0.3,10-0.3l0,0
		C33.4,128,36,127.9,38.5,127.8z M40.2,79.7c0.7,0.5,1.5,0.9,2.1,1.3c1.4,0.8,2.9,1.6,4.6,2.3c-0.4,0.7-0.6,1.5-0.6,2.3
		C43.9,85.4,41.4,82.4,40.2,79.7z M119,58.6c0.1-0.8,0.1-1.7,0.2-2.5c0.1-1,0.1-2,0.2-3c0.2-1.4,0.6-2.5,1.4-3.2
		c3.9-3.8,5.4-7.2,6.1-8.7c0.1-0.1,0.1-0.3,0.2-0.3c0.2-0.1,0.6-0.4,0.9-0.5c0.2-0.1,0.4-0.2,0.6-0.4c0.6-0.4,1.2-0.8,1.8-1.2
		c0.4-0.3,0.7-0.5,1.1-0.8c2.7-1.8,5.4-3.7,7.5-5.1c0.6-0.4,1.2-0.8,1.8-1.2c-1.7,6.4-3.9,14.9-6,22.8c-0.1,0-0.2-0.1-0.2-0.1
		c-0.5-0.2-1-0.4-1.5-0.6c-1.4-0.6-2.2-1.6-3.3-3.2l-0.1-0.2c-1.3-1.7-2.7-2-3.5-2c-2.6,0-4.5,2.7-4.8,5.3
		c-0.7,6.2,3.1,10.9,7.6,13.7c-0.8-0.3-1.5-0.7-2-1.2c-0.1-0.1-0.3-0.3-0.4-0.4l0,0c-1-1-2.1-2.3-4.2-2.6c-0.7-0.3-1.5-0.3-2.1,0
		c-0.5,0.2-1.1,0.5-1.6,1C118.7,62.2,118.8,60.4,119,58.6z"/>
	<path fill="#FFFFFF" d="M207.7,31.7c-0.5-1.7-2.2-3.8-4.6-4.3l-4.6-1l1.2,2.8c-0.9-0.4-1.8-0.8-2.9-0.9c-1.5-0.2-3,0.3-4.2,1.3
		c-2.1-0.9-4.5-1.4-7.1-1.4c-1.2,0-2.4,0.1-3.7,0.3c-0.1-0.1-0.1-0.2-0.2-0.2c-0.9-1-2.3-1.6-4.1-1.6c-1,0-2.1,0.2-3.1,0.5
		c-1.8,0.5-3.3,1.4-4.4,2.4c-0.7-1.1-2-1.7-3.3-1.5c-0.4-0.8-0.9-1.5-1.6-2c-1.1-0.9-2.4-1.3-3.9-1.3c-1.3,0-2.7,0.4-4.1,1
		c-0.3,0.2-0.6,0.3-0.9,0.5c-0.7-2.2-1.3-4.4-1.8-6.5c0-0.1,0.1-0.2,0.1-0.3l0.8-0.5c0.9-0.6,2.8-2,4.6-3.4c0.9-0.7,1.7-1.3,2.3-1.8
		c1.1-0.9,2.2-1.7,1.8-3.3l-0.4-1.6l-1.7-0.3l-0.4,0c-0.3,0-0.5,0-1,0.2c0.1-0.3,0.1-0.6,0.2-0.9c0.2-1.4,0.6-4.8-0.9-6.6
		c-0.7-0.8-1.6-1.2-2.6-1.2c-0.2,0-0.5,0-0.8,0.1c-2.7,0.6-4.2,3.3-5.2,5.2c-0.1,0.2-0.2,0.4-0.3,0.5c-0.9,1.5-1.7,3.1-2.4,4.9
		c-1-2.3-2.5-4.5-4.1-6.1c-1.3-1.3-3.1-2-4.7-2c-2.1,0-3.9,1.1-4.8,3.1c-1.9,3.9,1.4,7.9,2.7,9.5c0.7,0.8,1.4,1.6,2.1,2.3
		c-5.5,2.3-11,4.6-14.9,6.2c-1.5,0.6-2.8,1.2-3.8,1.6c-1.9-1.6-5.2-2.8-8.1-2.8c-1.9,0-3.7,0.4-5.3,1.3c-7,4-10.6,10.2-9.8,16.9
		c0.3,2.5,1.1,5.1,1.8,7.6c0.4,1.4,0.8,2.7,1.1,4c0.8,3.6,1.6,7.5,1.6,11.5c0,3.3-0.4,6.9-1.2,10.6c-0.1,0.4-0.2,0.9-0.4,1.5
		c-0.4-0.7-0.8-1.5-1.2-2.2c-2.8-4.4-6.8-6.1-10.6-7.7c-0.5-0.2-1-0.4-1.5-0.6c-5.2-2.3-9.4-4.3-13.1-6.4c-3.8-2.1-7.4-4.6-10.8-7.1
		c-1.4-1-2.8-1.9-4.2-2.9c-2-1.3-4-2.7-5.9-4.2c-2.4-1.9-4.6-4.1-6.8-6.3c-2.1-2.1-4.3-4.3-6.7-6.3c-1.5-1.2-3.4-2.6-5.4-2.8
		c-1.5-0.1-2.9,0.4-3.9,1.4c-1.6,1.7-1.7,4.3-1.7,5.8c0.1,2.1,0.6,4.1,1.6,6.2c-1.5,0-2.7,0.5-3.6,1.4c-0.9,1-1.4,2.4-1.2,4.2
		c0.3,4.6,3.1,8.4,6.1,11.9c0.9,1,1.9,2,3,3.1c-1,0.5-1.6,1.1-1.9,1.7c-0.6,1-1.1,2.7,0.1,5.1c0.3,0.5,0.6,1,0.9,1.5
		c-0.1,0-0.1,0-0.2,0c-2.9,0.7-5,3.4-5.9,5.9c-0.1,0.2-0.2,0.3-0.2,0.5c-2.2,7.3,0.8,15.4,9.1,24.1c3.8,4,7.9,7.4,12.2,10.3
		c2.2,1.4,4.4,2.7,6.7,3.8c-0.5,0.1-0.9,0.2-1.4,0.3c-3,0.6-6.2,0.9-9.3,1.2c-0.9,0.1-1.9,0.2-2.8,0.3c-5.3,0.5-13.6,1-18.9,1
		c-0.7,0-1.4,0-1.9,0c0.1-0.1,0.1-0.2,0.2-0.2c1-1.4,2.6-3.5,1.8-6.1c-0.4-1.2-1.5-2-2.7-2c-0.2,0-0.5,0-0.7,0.1
		c-2.7,0.7-4.8,2.6-5.7,5.3c-0.3,1-0.5,2-0.6,3.1c-0.4,0.1-0.8,0.2-1.2,0.3c-1.8,0.4-3.7,0.9-5.6,1.5C5.6,121.2,4,122,2.9,123
		c-2,1.6-1.9,3.2-1.6,4c0.2,0.5,0.5,1.1,1.2,1.6c0,0.3,0,0.7,0,1c0.1,0.9,0.6,1.7,1.4,2.1c-0.9,0.5-1.7,1.2-2.4,1.8
		c-1.7,1.6-1.6,3.1-1.3,4c0.2,0.5,0.6,1.1,1.4,1.6c0,0.3,0,0.7,0.1,1c0.3,1.3,1.4,2.3,2.8,2.3h0l0.1,0c3.7-0.1,6.1-2.4,8.2-4.3
		c1.6-1.5,3-2.8,4.7-3l0.4-0.1l0,0c3.9-0.6,7.8-1.1,11.7-1.5c11.3-1.4,22.9-2.8,33.9-6.7c0.4,0.2,0.9,0.4,1.4,0.4
		c0.5,0.1,1,0.1,1.5,0.1c2.8,0,5.6-1.3,7.9-2.3l0.6-0.3c7.3-3.3,13.2-6.3,18-9.2c4.1-2.5,7.5-6.1,10.2-9.3
		c6.5-7.6,11-15.8,12.9-23.9c1-4.2,1.5-8.5,1.9-12.7c0.3,1.4,0.7,2.8,1.3,4.2c1.4,3.4,5.3,4.2,7.1,4.6c1,0.2,1.9,0.3,2.9,0.4
		c0.3,0,0.5,0,0.8,0.1c1.4,1.8,3.7,2.1,5.3,2.2l0.2,0c2.2,0.2,4.3,0.9,6.6,1.6c2.4,0.8,4.9,1.6,7.6,1.9c0.6,0.1,1.2,0.1,1.8,0.1
		c3.6,0,7.4-1,12-3.3c0.3-0.1,0.6-0.3,0.9-0.5c3.3-1.6,7.4-3.5,9.2-7c0-0.1,0.1-0.1,0.1-0.2c0.2-0.2,0.3-0.3,0.5-0.5
		c1.2,0.6,2.5,1,3.7,1.4c1.6,0.5,3.8,1.2,5.9,1.2c0.7,0,1.4-0.1,2-0.2c1.7,1.4,4.3,2.2,6.8,2.2c2.7,0,5-1,6.3-2.7
		c1.8-2.3,1.8-6.3,0.7-8.6c-0.4-0.8-1.4-2.1-3.8-2.4c0.4-0.3,0.9-0.6,1.3-1.1c1.3-1.4,2-3.3,2-5.1c0-0.8-0.2-1.5-0.5-2.1
		c0.7-1.2,1.3-2.5,1.8-3.9c1.1-3,1.2-6.4,0.5-9.8c1.4-0.2,2.6-0.8,3.6-1.6C206.8,38.7,208.7,34.9,207.7,31.7z M186.7,64.2
		c-0.1,0.1-0.2,0.2-0.3,0.4c-0.1-0.1-0.3-0.2-0.4-0.2C186.3,64.3,186.5,64.2,186.7,64.2z M166.8,40.1c-0.2-0.7-0.2-1.3-0.1-1.7
		c0.3-0.4,0.6-0.7,1-1.1c0.3-0.3,0.5-0.5,0.8-0.8c0,0.1,0,0.1,0,0.2C167.8,37.6,167.2,38.8,166.8,40.1z M38.5,125.2
		c-5.9,1.1-14.3,2.2-18.8,2.5c0.1-0.1,0.1-0.2,0.2-0.3c0.3-0.5,0.6-1,0.9-1.6c3.3-0.2,6.7-0.3,10-0.3l0,0
		C33.4,125.4,36,125.3,38.5,125.2z M40.2,77.1c0.7,0.5,1.5,0.9,2.1,1.3c1.4,0.8,2.9,1.6,4.6,2.3c-0.4,0.7-0.6,1.5-0.6,2.3
		C43.9,82.7,41.4,79.7,40.2,77.1z M119,55.9c0.1-0.8,0.1-1.7,0.2-2.5c0.1-1,0.1-2,0.2-3c0.2-1.4,0.6-2.5,1.4-3.2
		c3.9-3.8,5.4-7.2,6.1-8.7c0.1-0.1,0.1-0.3,0.2-0.3c0.2-0.1,0.6-0.4,0.9-0.5c0.2-0.1,0.4-0.2,0.6-0.4c0.6-0.4,1.2-0.8,1.8-1.2
		c0.4-0.3,0.7-0.5,1.1-0.8c2.7-1.8,5.4-3.7,7.5-5.1c0.6-0.4,1.2-0.8,1.8-1.2c-1.7,6.4-3.9,14.9-6,22.8c-0.1,0-0.2-0.1-0.2-0.1
		c-0.5-0.2-1-0.4-1.5-0.6c-1.4-0.6-2.2-1.6-3.3-3.2l-0.1-0.2c-1.3-1.7-2.7-2-3.5-2c-2.6,0-4.5,2.7-4.8,5.3
		c-0.7,6.2,3.1,10.9,7.6,13.7c-0.8-0.3-1.5-0.7-2-1.2c-0.1-0.1-0.3-0.3-0.4-0.4l0,0c-1-1-2.1-2.3-4.2-2.6c-0.7-0.3-1.5-0.3-2.1,0
		c-0.5,0.2-1.1,0.5-1.6,1C118.7,59.6,118.8,57.7,119,55.9z"/>
	<g>
		<path fill="#F15C27" d="M5.7,128.9c0.2-1.3,2.2-2.3,3.8-3c0.7-0.3,1.3-0.4,1.7-1c-0.8-0.4-2.3,0.7-3.3,0.9
			c-1.9,0.3-2.7,0.4-3.6,0.1c1.3-1.8,4-2.2,6-2.8c2.2-0.6,4.5-1,6.7-1.7c0.1,0,0.2-0.2,0.2-0.3c-0.3-2.9,0.4-6.3,3.5-7.3
			c0.2,1.6-1.8,3.4-2.3,4.8c-1.8,4.4,1.1,3.2,8.2,3.3c5.2,0,22.9-1.2,26.6-1.9c1.9-0.4,3.9-0.8,5.8-1.3c0.9-0.2,1.8-0.5,2.8-0.9
			c0.1,0.4,0.3,0.9,0.4,1.3c0,0.1,0,0.1,0.1,0.2c-14.1,3.3-28.8,3.1-43.2,3.4c0-0.2-0.1-0.4-0.2-0.6c-0.1-0.2-0.3-0.2-0.5-0.2
			c-0.8,0.3-1.5,0.7-2.1,1.3c-1.4,0.5-2.7,1.4-4,2.3C10.3,127,8.3,128.9,5.7,128.9z"/>
		<path fill="#FFF4F0" d="M122.3,35.3c-0.8-0.4-1.3-0.9-1.7-1.7c-1.4-3.5-0.3-6-3.7-7.5c-4.9-2.2-13.6,0.6-15.7,11.1
			c-0.8,3.9,1.3,7.7,2,10.9c1.4,6.6,2.9,12.8,2.2,19.6c-0.3,3-0.7,5.9-1.5,8.8c-0.9,3.2-2.3,6.1-3.6,9.1c-0.7,1.5-1.4,3.1-2.6,4.3
			c-2.4,2.5-5.9,3.7-9.1,4.4c-7.8,1.8-15.4,1.9-23.2,0.1c-2-0.5-3.9-1-5.8-1.7c-0.1,0-0.2,0-0.2-0.1c0,0,0,0,0,0
			c-0.7-0.3-1.5-0.6-2.2-0.9c-3.2-1.5-5.6-3.4-7.6-6.3c-3.9,2.2-8.1-0.8-10.5-3.9c-1.2-1.6-1.9-3.2-2.5-5.1
			c-0.1-0.5-0.3-1.4-0.8-1.6c-0.8-0.5-2,0.1-2.6,0.7c-1.1,1-2,2.2-2.4,3.6c0,0.1-0.1,0.1-0.1,0.1c-2.3,8.2,4,16.3,9.4,21.7
			c3.6,3.5,7.5,6.8,11.7,9.5c2.1,1.4,4.4,2.5,6.7,3.6c1.9,0.9,4.2,2.3,4.4,4.6c0.2,1.8,0.2,5.5,2.8,5.5c3.1,0,6.5-1.7,9.4-2.9
			c3.2-1.3,6.3-2.7,9.3-4.4c6-3.3,11.7-7.3,16.2-12.6c5.8-6.8,10.6-14.8,12.5-23.6c1.8-8.1,2-16.6,2.7-24.8
			c0.3-3.5-0.1-7.4,2.3-10.3c1.4-1.7,5.7-6,5.7-8.8C123.7,36.1,123,35.7,122.3,35.3z"/>
		<path opacity="0.6" fill="#F9B09A" d="M117.7,40.1c0.4,7.9-11.6,8.9-11.9,1.5C105.4,33.7,117.3,31.9,117.7,40.1z"/>
		<path fill="#010101" d="M115.6,31.1c-0.1,0-0.2,0-0.2,0c-0.1,0-0.2,0-0.3,0c-0.2,0-0.4,0-0.6,0c-0.1,0-0.1,0-0.2,0c0,0,0,0,0,0
			c-0.1-0.5-1-0.3-0.9,0.2c1,3.9-3.6,5.5-6.6,4c-0.5-0.2-1,0.5-0.5,0.7c0.1,0,0.1,0.1,0.2,0.1c0,0,0,0.1,0,0.1c0,0.1,0,0.1,0,0.2
			c0,0.1-0.1,0.3-0.1,0.4c0,0.2-0.1,0.3-0.1,0.5c-0.2,0.5,0.7,0.8,0.8,0.2c0.1-0.4,0.2-0.7,0.3-1.1c0.5,0.2,1.1,0.2,1.6,0.2
			c0,0.2-0.1,0.4-0.1,0.6c0,0.6,0.9,0.6,0.9,0c0-0.2,0.1-0.4,0.1-0.7c0.4,0,0.8-0.1,1.2-0.2c0.1,0.3,0.2,0.6,0.5,0.8
			c0.2,0.1,0.5,0,0.6-0.1c0.1-0.2,0.1-0.4-0.1-0.5c0,0,0,0,0,0c0,0,0-0.1-0.1-0.1c0,0,0-0.1,0-0.1c0,0,0,0,0,0c0-0.1,0-0.1-0.1-0.2
			c0.4-0.2,0.8-0.4,1.1-0.7c0.1,0.1,0.2,0.2,0.3,0.3c0.1,0.1,0.3,0.2,0.5,0.2c0.2,0,0.4-0.2,0.5-0.4c0-0.2-0.1-0.4-0.3-0.4
			c-0.1,0-0.1-0.1-0.2-0.1c-0.1,0-0.1-0.1-0.2-0.1c0,0,0,0,0,0c0.2-0.3,0.4-0.6,0.5-1c0.4,0.1,0.8,0.2,1.2,0.2
			c0.2,0,0.4-0.2,0.5-0.4c0-0.2-0.2-0.4-0.4-0.4c-0.3,0-0.7-0.1-1.1-0.2c0,0,0,0,0,0c0-0.3,0-0.6,0-1c0,0,0,0,0,0c0.3,0,0.6,0,0.9,0
			c0.1,0,0.3,0,0.4-0.1c0.1-0.1,0.2-0.1,0.2-0.3C115.8,31.4,115.7,31.2,115.6,31.1z"/>
		<path fill="#504236" d="M57.3,91c-1.7-1.6-2.9-3.5-1.6-5.9c1.1-2.1,3.4-3.2,5.7-3.7c-3-1.3-5.9-2.8-8.7-4.5c-2.4-1.5-5.2-3-7.2-5
			c-1-1-2.4-3.2-0.7-4.3c1-0.6,2.3-1,3.5-1.1c-1.9-0.9-3.7-2.5-5.1-3.9c-2-2-4.5-4.6-5.1-7.5c-1-5.1,5-4,8.8-3
			c-3.7-3-8-10.2-2.4-11.7c-0.7-0.6-1.3-1.2-2-1.9c-1.6-1.5-3-3.1-4.8-4.3c-1.1-0.8-4.1-3.1-5-0.9c-0.6,1.5-0.6,3.2-0.3,4.7
			c0.7,3.3,2.4,6,4.4,8.6c0.1,0,0.1,0.1,0.2,0.1c0.5,0.7,1.1,1.4,1.8,2c0.3,0.3,0,0.8-0.4,0.6c-1.8-1.3-3.8-2.6-5.9-3.2
			c-0.8-0.3-2.3-0.7-3,0c-1.1,1-0.6,3-0.1,4.2c1.2,3.4,3.5,6.3,5.9,8.9c1.2,1.3,2.6,2.6,4,3.7c0.9,0.8,2,1.8,3.1,2.4
			c0.1,0,0.2,0.1,0.3,0.1c0.1,0,0.1,0.1,0.2,0.1c0,0,0,0,0,0c0.4,0.1,0.2,0.8-0.2,0.6c-0.2-0.1-0.4-0.2-0.6-0.3
			c-1.6-0.5-3.5-0.7-5.1-0.2c-3.2,0.9-0.4,4.1,0.9,5.5c4.6,4.6,10.7,7,16.8,8.9c0.1,0,0.1,0.1,0.2,0.1c0.4,0.1,0.3,0.7-0.1,0.7
			c-1.4-0.1-3.4-0.4-4.6,0.6C46.8,84.3,53.9,89.2,57.3,91z"/>
		<path fill="#EF9526" d="M155.6,14c-10.8,4.6-34.8,14.5-35.1,14.6l-0.2-0.4c0,0,0,0-0.1,0.1c0.1,0.1,0.1,0.2,0.1,0.3
			c-0.1,1.3,0.1,3.4,0.5,4.5C132.5,26.7,144.5,21,155.6,14z"/>
		<path fill="#FFF4F0" d="M48.9,52.6c0.3,0.1,0.2,0.7-0.2,0.7c-2.6-0.5-12.3-3.5-9.8,2.6c1.1,2.7,3.2,5,5.3,6.9
			c1.8,1.6,4,3.4,6.4,3.8c0.4,0.1,0.4,0.8-0.1,0.7c-1.4-0.2-4.9-0.3-5.7,1.2c-1.1,1.9,2.1,3.8,3.4,4.7c4.5,3.2,9.4,6,14.5,8
			c0.3,0.1,0.3,0.6-0.1,0.7c-2.2,0.3-5.3,1.1-6.3,3.4c-1.4,3.2,1,4.9,3.2,6.6c2.3,0.8,4.6,1.5,7,2c6.9,1.4,13.7,1.5,20.6,0
			c2.3-0.5,4.7-0.9,6.8-2c7.1-3.6,6.4-12.3,2.1-18c-3.2-4.2-8.7-5.4-13.3-7.6c-3.8-1.8-7.7-3.6-11.4-5.8
			c-5.9-3.5-11.2-7.8-16.9-11.6c-3.4-2.2-6.4-5.1-9.4-8c0,0,0,0,0,0C38.6,42.3,45.7,51.3,48.9,52.6z"/>
		<path fill="#E86924" d="M135.2,28.8c2.3-1.5,4.5-3.1,6.8-4.6c4.3-2.9,8.6-5.9,12.9-8.9C144,22,132.4,27.5,121.3,33.7
			c-0.2,0.1,1.2,1.3,1.4,1.4c0.6,0.3,1.3,0.4,2,0.4c0.2,0,0.4-0.1,0.7-0.1c1.3-0.4,2.4-1.4,3.5-2.1C131,31.8,133.1,30.2,135.2,28.8z
			"/>
		<path fill="#010101" d="M160,11.8l-34.5,24C125.4,35.7,154.3,15.8,160,11.8z"/>
		<path fill="#010101" d="M161.4,11c-0.3-0.1-38.2,15.8-40.9,16.9c-0.1,0-0.1,0-0.2,0c0,0-0.1,0-0.1,0c-0.4-1.8-6.7-4.9-11.3-2.2
			c-5.3,3-9.3,8-8.6,14.5c0.4,3.7,2,7.7,2.8,11.3c0.9,4,1.7,8,1.7,12.1c0,3.7-0.5,7.5-1.3,11.1c-0.5,2.1-1.9,6.9-3.2,9.2
			c0,0-0.1,0.1-0.1,0.1c0.7-0.8-0.5-4.2-0.8-5.1c-0.5-1.4-1.2-2.8-2-4.1c-2.7-4.2-6.6-5.5-11-7.4c-4.5-2-9-4.1-13.3-6.5
			c-3.8-2.1-7.4-4.6-11-7.2c-3.3-2.4-6.9-4.5-10.2-7.1c-4.8-3.8-8.8-8.7-13.5-12.6c-1-0.8-2.7-2.1-4.1-2.2c-2.5-0.2-3,2.6-2.9,4.6
			c0.2,4.2,2.4,7.7,4.9,10.9c-3.4-1.9-8.5-3.9-8.2,0.8c0.3,4,3,7.5,5.5,10.4c1.4,1.6,2.9,3,4.4,4.4c0.7,0.6,1.6,1.4,2.5,2.1
			c-3.1-0.4-7.2,0.2-5.3,3.9c1.6,3.2,5.2,5.7,8.2,7.4c2.9,1.7,6,2.8,9.1,3.9c-1.2,0-2.5,0.3-3.2,1.2c-0.9,1.2-0.8,2.3-0.3,3.4
			c-5.3,2.9-10.7-4-12-8.5c-0.4-1.5-1.1-2.7-2.8-2.3c-2,0.5-3.6,2.6-4.2,4.5c0,0-0.1,0.1-0.1,0.1c-2.5,8.1,3.2,16.1,8.5,21.7
			c3.5,3.7,7.5,7.1,11.8,9.9c2.1,1.4,4.4,2.7,6.7,3.8c1.6,0.8,3.6,1.6,4.6,3.1c-0.3,0.1-0.7,0.2-1,0.3c-1.9,0.5-3.8,1-5.8,1.4
			c-4.1,0.9-8.2,1.1-12.3,1.5c-8,0.8-22.8,1.4-24,0.6c-1.2-2.8,3.6-4.9,2.7-7.8c-0.1-0.2-0.3-0.3-0.4-0.2c-1.9,0.5-3.3,1.8-3.9,3.6
			c-0.3,1-0.5,1.9-0.5,2.9c0,0.1,0.1,1.3,0,1.3c-0.5,0.2-1.1,0.3-1.6,0.4c-2.3,0.6-4.7,1.1-6.9,1.8c-1.2,0.4-2.5,1.1-3.5,1.9
			c-2.1,1.7,0.3,2,2.1,1.8c-1,0.7-1.7,1.5-1.5,2.6c0,0.2,0.2,0.3,0.4,0.3c4.1,0.2,6.7-3.5,10.1-5.2c-0.3,0.5-0.5,1-0.6,1.5
			c-0.2,1-0.3,1.9-0.2,2.9c0,0.1,0.2,1.3,0.2,1.3c-0.5,0.2-1,0.4-1.5,0.6c-2.3,0.8-4.5,1.5-6.7,2.4c-1.2,0.5-2.4,1.3-3.3,2.2
			c-2,1.9,0.5,1.9,2.3,1.6c-0.9,0.8-1.5,1.6-1.3,2.7c0,0.2,0.2,0.3,0.4,0.3c5.3-0.2,7.5-6.6,12.7-7.4c0,0,0,0,0,0
			c15.6-2.3,31.7-3,46.5-8.6c0,0,0.1,0,0.1,0c0.4,0.4,0.9,0.6,1.5,0.7c2.7,0.5,6.1-1.2,8.4-2.3c5.9-2.7,12.2-5.8,17.8-9.1
			c3.7-2.2,6.8-5.5,9.6-8.8c5.7-6.6,10.4-14.4,12.4-22.9c2-8.5,2.1-17.3,2.9-25.9c0.2-1.8,0.2-3.7,0.4-5.5c0.2-1.8,0.9-3.5,2.1-4.7
			c4.4-4.4,5.5-8.1,6-8.7c0.5-0.7,1.5-1.2,2.2-1.6c1-0.6,1.8-1.3,2.8-1.9c2.5-1.7,5-3.4,7.4-5.1c2.8-2,5.7-3.9,8.5-5.9
			c2.6-1.8,5.2-3.6,7.8-5.4C155.6,15.6,161.7,11,161.4,11z M120.5,28.6c0-0.1-0.1-0.2-0.1-0.3c0,0,0,0,0.1-0.1L120.5,28.6
			c0.4-0.1,24.3-10,35.1-14.6c-11.1,7-23.1,12.7-34.6,19.1C120.7,31.9,120.4,29.9,120.5,28.6z M45.1,41c3,2.8,6,5.7,9.4,8
			c5.7,3.7,11,8.1,16.9,11.6c3.7,2.2,7.5,4,11.4,5.8c4.6,2.2,10.1,3.4,13.3,7.6c4.3,5.6,5.1,14.3-2.1,18c-2.1,1.1-4.5,1.5-6.8,2
			c-6.9,1.5-13.7,1.5-20.6,0c-2.4-0.5-4.7-1.2-7-2c-2.2-1.7-4.6-3.5-3.2-6.6c1-2.3,4.1-3.2,6.3-3.4c0.3,0,0.4-0.5,0.1-0.7
			c-5.1-2-10-4.8-14.5-8c-1.2-0.9-4.5-2.8-3.4-4.7c0.8-1.5,4.4-1.4,5.7-1.2c0.4,0.1,0.5-0.6,0.1-0.7c-2.4-0.4-4.6-2.3-6.4-3.8
			c-2.1-1.9-4.2-4.2-5.3-6.9c-2.5-6.1,7.2-3.1,9.8-2.6c0.4,0.1,0.5-0.5,0.2-0.7C45.7,51.3,38.6,42.3,45.1,41
			C45.1,41,45.1,41,45.1,41z M50.3,81.5c1.2-1,3.2-0.7,4.6-0.6c0.4,0,0.5-0.6,0.1-0.7c0-0.1-0.1-0.1-0.2-0.1
			c-6.1-1.9-12.3-4.3-16.8-8.9c-1.4-1.4-4.1-4.6-0.9-5.5c1.6-0.5,3.5-0.2,5.1,0.2c0.2,0.1,0.4,0.2,0.6,0.3c0.4,0.1,0.7-0.5,0.2-0.6
			c0,0,0,0,0,0c0-0.1-0.1-0.1-0.2-0.1c-0.1,0-0.2-0.1-0.3-0.1c-1.1-0.6-2.2-1.6-3.1-2.4c-1.4-1.1-2.7-2.4-4-3.7
			c-2.4-2.6-4.7-5.5-5.9-8.9c-0.4-1.2-0.9-3.2,0.1-4.2c0.7-0.7,2.2-0.3,3,0c2.1,0.6,4.1,1.9,5.9,3.2c0.4,0.3,0.7-0.3,0.4-0.6
			c-0.7-0.6-1.3-1.2-1.8-2c-0.1,0-0.1-0.1-0.2-0.1c-2-2.6-3.8-5.3-4.4-8.6c-0.3-1.5-0.3-3.2,0.3-4.7c0.9-2.2,3.9,0.1,5,0.9
			c1.7,1.3,3.2,2.9,4.8,4.3c0.7,0.6,1.3,1.2,2,1.9c-5.6,1.5-1.3,8.7,2.4,11.7c-3.8-0.9-9.9-2.1-8.8,3c0.6,2.9,3.1,5.5,5.1,7.5
			c1.4,1.4,3.2,2.9,5.1,3.9c-1.3,0.1-2.5,0.4-3.5,1.1c-1.7,1.1-0.3,3.3,0.7,4.3c2,2,4.8,3.5,7.2,5c2.8,1.7,5.7,3.2,8.7,4.5
			c-2.3,0.5-4.5,1.5-5.7,3.7c-1.3,2.4,0,4.4,1.6,5.9C53.9,89.2,46.8,84.3,50.3,81.5z M5.7,128.9c0.2-1.3,2.2-2.3,3.8-3
			c0.7-0.3,1.3-0.4,1.7-1c-0.8-0.4-2.3,0.7-3.3,0.9c-1.9,0.3-2.7,0.4-3.6,0.1c1.3-1.8,4-2.2,6-2.8c2.2-0.6,4.5-1,6.7-1.7
			c0.1,0,0.2-0.2,0.2-0.3c-0.3-2.9,0.4-6.3,3.5-7.3c0.2,1.6-1.8,3.4-2.3,4.8c-1.8,4.4,1.1,3.2,8.2,3.3c5.2,0,22.9-1.2,26.6-1.9
			c1.9-0.4,3.9-0.8,5.8-1.3c0.9-0.2,1.8-0.5,2.8-0.9c0.1,0.4,0.3,0.9,0.4,1.3c0,0.1,0,0.1,0.1,0.2c-14.1,3.3-28.8,3.1-43.2,3.4
			c0-0.2-0.1-0.4-0.2-0.6c-0.1-0.2-0.3-0.2-0.5-0.2c-0.8,0.3-1.5,0.7-2.1,1.3c-1.4,0.5-2.7,1.4-4,2.3C10.3,127,8.3,128.9,5.7,128.9z
			 M62.5,121.2c-1.4,0.3-2.6,1-3.9,1.5c-1.9,0.7-3.7,1.3-5.6,1.9c-4,1.2-8.1,1.9-12.2,2.7c-7.9,1.5-22.5,3.5-23.9,2.8
			c-1.2-2.2,1.8-4.4,2.1-6.7c14.4-0.8,29.2-0.2,43.4-3.4C62.4,120.4,62.5,120.7,62.5,121.2C62.5,121.1,62.5,121.1,62.5,121.2z
			 M62.9,123.5c-14.8,5.4-30.7,6.5-46.3,8.4c-0.1,0-0.1,0-0.1,0.1c-2.1,0.5-3.8,1.8-5.4,3.3c-1.8,1.7-3.7,3.7-6.3,4
			c0-1.3,2-2.5,3.5-3.3c0.7-0.3,1.3-0.5,1.6-1.2c-0.9-0.3-2.2,0.9-3.2,1.2c-1.9,0.5-2.7,0.7-3.6,0.5c1.2-1.9,3.8-2.6,5.7-3.3
			c2.2-0.8,4.4-1.4,6.5-2.3c0.1-0.1,0.2-0.2,0.2-0.4c-0.4-2.3-0.3-4.9,1.2-6.5c1.4-1.3,2-1.4,1.7-0.4c-0.2,1.4-1.7,3.1-2,4.3
			c-1.4,4.6,1.4,3.1,8.5,2.5c5.1-0.4,22.7-3.3,26.4-4.3c1.9-0.5,3.8-1.2,5.7-1.8c1.9-0.7,3.8-1.7,5.7-2.2c0,0,0,0.1,0.1,0.1
			c0.1,0.5,0.3,0.9,0.6,1.3l-0.2,0C63,123.3,62.9,123.4,62.9,123.5z M118.1,45.4c-2.4,2.9-2,6.8-2.3,10.3
			c-0.6,8.3-0.9,16.7-2.7,24.8c-1.9,8.8-6.7,16.8-12.5,23.6c-4.4,5.3-10.2,9.3-16.2,12.6c-3,1.6-6.2,3.1-9.3,4.4
			c-2.9,1.2-6.2,2.9-9.4,2.9c-2.6,0-2.6-3.6-2.8-5.5c-0.2-2.3-2.5-3.7-4.4-4.6c-2.3-1.1-4.5-2.3-6.7-3.6c-4.2-2.7-8.1-5.9-11.7-9.5
			c-5.5-5.4-11.7-13.5-9.4-21.7c0,0,0.1-0.1,0.1-0.1c0.4-1.4,1.3-2.7,2.4-3.6c0.6-0.5,1.8-1.2,2.6-0.7c0.5,0.3,0.7,1.2,0.8,1.6
			c0.6,1.9,1.2,3.5,2.5,5.1c2.4,3.1,6.6,6.1,10.5,3.9c1.9,2.9,4.4,4.9,7.6,6.3c0.7,0.3,1.4,0.6,2.2,0.9c0,0,0,0,0,0
			c0.1,0.1,0.2,0.1,0.2,0.1c1.9,0.7,3.9,1.2,5.8,1.7c7.8,1.8,15.4,1.8,23.2-0.1c3.2-0.8,6.8-2,9.1-4.4c1.2-1.2,1.9-2.8,2.6-4.3
			c1.3-3,2.7-5.9,3.6-9.1c0.8-2.9,1.3-5.8,1.5-8.8c0.6-6.8-0.8-13-2.2-19.6c-0.7-3.2-2.8-7-2-10.9c2.1-10.5,10.8-13.3,15.7-11.1
			c3.5,1.5,2.4,4,3.7,7.5c0.3,0.8,0.9,1.3,1.7,1.7c0.7,0.4,1.5,0.7,1.5,1.2C123.8,39.4,119.5,43.7,118.1,45.4z M124.7,35.5
			c-0.7,0.1-1.4-0.1-2-0.4c-0.1-0.1-1.5-1.3-1.4-1.4c11.1-6.2,22.7-11.8,33.5-18.4c-4.3,3-8.6,5.9-12.9,8.9
			c-2.3,1.5-4.5,3.1-6.8,4.6c-2.1,1.5-4.2,3.1-6.4,4.5c-1.1,0.7-2.2,1.8-3.5,2.1C125.1,35.4,124.9,35.5,124.7,35.5z M125.4,35.7
			l34.5-24C154.3,15.8,125.4,35.7,125.4,35.7z"/>
		<g>
			<path fill="#DAC1B4" d="M143.2,7.8c-0.8-0.9-1.8-2.2-3.1-2.2c-1.1-0.1-2.4,0.7-2.5,2c-0.2,2.3,1.7,4.6,3.2,6.2
				c1.3,1.3,3,3,4.8,3.4c-0.1-1.1,0.2-2.2,0.8-2.9C145.9,11.9,144.6,9.6,143.2,7.8z"/>
			<path fill="#B1E2F2" d="M136.2,55.9c-2.3-1.2-4.9-1.8-7-3.5c-0.9-0.7-1.4-1.6-2-2.5c-1.1-1.6-2.7,0-2.8,1.4c0,0.5,0,0.9,0,1.4
				c0.4,5.6,4.8,9.3,9.8,11C134.8,61.5,135.5,58.8,136.2,55.9z"/>
			<path fill="#FCC9A3" d="M161.3,48c0.5,1.3,1,2.6,1.6,3.8c1.2-0.1,2.8-0.4,3.8-1.2c0,0,0,0,0-0.1c-0.6-2.4-1.3-4.8-2-7.2
				c-0.7-2.2-1.9-4.9-0.3-7.1c1-1.4,2.5-2.5,3-4.3c0.1-0.2,0.3-1-0.1-0.9c-0.3,0.1-0.5,0.2-0.7,0.3c-0.6,0.3-1,0.8-1.5,1.3
				c0,0,0,0-0.1,0.1c0,0,0,0,0,0c-0.1,0.4-0.7,0.4-0.7,0c0.2-1.6,0.1-4.2-1.8-4.8c-1.6-0.5-4.5,0-5.1,1.8c-1,2.9,1.1,5.6,1.2,8.4
				C158.5,41.8,160,44.8,161.3,48z"/>
			<path fill="#B1E2F2" d="M133.1,68c-2.2,0.3-4.3,0.1-6.3-0.8c-2.2-1-3.2-3.8-5.8-3.7c0,0,0,0,0,0c-1.5,1-0.3,3.5,0.1,4.8
				c0.4,1.3,0.4,2.8,1,4.1c0.8,1.7,2.6,2.3,4.3,2.7c1.1,0.2,4.1,0.1,4.7,0.7c-0.3-0.2,0-0.6,0.3-0.6c0-2,0.6-3.8,1.2-5.7
				C132.8,69.3,132.9,68.8,133.1,68z"/>
			<path fill="#F3BE9A" d="M174.4,33.8c1.4-0.9,3.2-1.7,5-2.2c0,0,0,0,0,0c0.5-2.5-3.1-1.8-4.4-1.3c-0.9,0.3-2,0.8-2.7,1.5
				c-1.1,1.2-0.9,3.1-0.7,4.7C172.5,35.3,173.4,34.4,174.4,33.8z"/>
			<path fill="#B1E2F2" d="M166.8,61.3c1,2.5,2.5,4.8,3.6,7.3c0.2-0.3,0.5-0.5,0.8-0.7c0.5-0.3,0.4-1.8,0.6-2.4
				c0.6-1.9,1.6-3.5,3.4-4.5c0.2-0.1-0.8-2.7-0.9-2.9c-0.5-1.1-1.1-2.1-1.8-3.1c-1.3-1.8-3.2-3.4-5.6-3.6c0,0-0.1,0-0.1,0
				c-1,0.7-2.5,1-3.7,1.2C164.4,55.5,165.6,58.4,166.8,61.3z"/>
			<path fill="#EDDBD1" d="M152.3,16.9c2.6-2.1,4.4-5.4,5-8.6c0.1-0.7,1-6.6-1-4.7c-1.4,1.3-2.4,3.2-3.2,4.8
				c-0.8,1.5-1.6,3.1-1.9,4.8c0,0.1-0.1,0.2-0.1,0.2C151.8,14.2,152.3,15.6,152.3,16.9z"/>
			<path fill="#FDD8C0" d="M203.6,31.2c-0.2,0.6-0.5,1.1-1,1.4c-1,0.6-1.9,0.5-2.9,0.1c-0.7-0.3-1.3-0.8-2-1
				c-0.4-0.2-0.8-0.3-1.2-0.3c-0.8-0.1-1.6,0.3-1.9,1.1c-0.2,0.4-0.2,1.9-0.9,1.4c-4.9-4-13.4-2.9-18.5,0.3
				c-5.2,3.3-8,11.9-5.1,17.5c2.1,1.3,3.9,3.7,5,6.2c3.6,4.3,11.4,4.3,15.9,1.6c1.5-0.9,2.9-2.1,3.9-3.4c1.9-2.4,3.1-5.5,3.3-8.5
				c0.1-1.6-0.1-3.1-0.4-4.6c-0.1-0.4-1.2-4-1-4.2c0.5-0.4,1.7,0.5,2.3,0.5c2.7,0.3,4.6-1.6,5.4-4c0.5-1.5,0.6-2.6-0.5-3.8
				C203.8,31.4,203.7,31.3,203.6,31.2z"/>
			<path fill="#F3BE9A" d="M191.2,60.1c-0.6,0.3-1.3,0.6-2,0.9c1.7,1,3.9,1.8,5.4,0.1c1.2-1.2,1.9-3.3,0.6-4.7
				C194.1,57.9,192.7,59.2,191.2,60.1z"/>
			<path fill="#F8ECE4" d="M151.2,20.2c-0.2,0.2-0.4,0.4-0.7,0.5c-1.6,0.9-2.9,0.4-3.8-0.7c0,0,0,0,0,0c0,0,0,0.1,0,0.1
				c-0.8,1.6-8.4,31.3-11.8,44c0,0.1,0,0.2-0.1,0.2c-0.3,1.2-0.6,2.2-0.8,3.1c0.1,0.1,0,0.3-0.1,0.4c-0.3,1-0.5,1.6-0.5,1.9
				c-0.7,1.9-1.5,4-1.2,6.1c0.3,2,1.9,1.8,3.6,2c2.1,0.2,4.2,0.9,6.2,1.5c2.4,0.8,5,1.2,7.4,1.9c6.1,1.8,21.6-6.2,21.6-9.3
				c-0.5-2.2-8.2-17.5-11.1-25.5C156.8,37.8,153.5,29.1,151.2,20.2z"/>
			<path fill="#EDDBD1" d="M147.4,20.6c0,0-7.5,27-3.6,27.9c3.9,0.9,4.8-27.7,4.8-27.7L147.4,20.6z"/>
			<path fill="#EDDBD1" d="M150.3,20.3l-1-0.1c0,0,2.6,43.5,7.3,41.5C161,59.9,150.3,20.3,150.3,20.3z"/>
			<path fill="#7EC7D3" d="M170.8,69.3c0,0.5,0.4,1.3,0.7,2c0.7-0.8,1.1-1.1,1.7-1.5C172.8,69.5,170.9,67.5,170.8,69.3z"/>
			<path fill="#FCC9A3" d="M172.2,67.7c1.2,2.1,4.5,3.2,6.7,3.9c2.1,0.7,5.7,1.8,7.7,0.3c0.3-0.3,0.8,0.2,0.5,0.5
				c1,1.4,2.9,1.9,4.5,2.1c1.4,0.1,4,0.2,4.9-1.2c0.6-1,1.6-4.7,0.1-5.5c-1.5-0.7-3.4-0.2-5,0.1c-0.3,0.1-0.5-0.4-0.3-0.6
				c1-0.6,1.1-2.2-0.4-2c-0.9,0.1-1.5,0.9-2.1,1.6c-0.3,0.5-0.7,1-1,1.4c0,0.1-0.1,0.1-0.2,0.1c-0.1,0.2-0.3,0.3-0.5,0.1
				c-3.6-2.6-8.2-3.8-11.4-6.9c-0.1,0.1-0.3,0.1-0.4,0C173.3,63,172.3,65.3,172.2,67.7z"/>
			<path fill="#F9B09A" d="M177.7,41.1c1.6,4.9-5.8,7.7-7.3,3C168.8,39.1,176.1,35.9,177.7,41.1z"/>
			<path fill="#F9B09A" d="M189.5,56.5c-1.3,5-9,3.4-7.8-1.4C183,50.1,190.9,51.3,189.5,56.5z"/>
			<path fill="#010101" d="M202.6,29.8c0.1,0.3,0.4,0.9,0.4,1.2c-0.3,2-2.7,1.3-3.8,0.7c-0.9-0.5-1.7-0.9-2.7-1
				c-1.4-0.2-2.9,0.9-3,2.2c-3.6-2.6-8.8-2.8-13.3-1.6c0.3-2.8-3.2-2.4-5-1.9c-1.3,0.4-2.5,1-3.4,1.9c-1.4,1.4-0.9,4-0.6,5.8
				c-2.8,4-3.8,9.8-2.1,14.1c-0.6-0.2-1.1-0.4-1.7-0.5c0.1-0.1,0.1-0.2,0.1-0.3c-0.5-2-1-4-1.7-6c-0.6-2-2-4.7-1.3-6.9
				c0-0.1,0-0.1,0-0.2c0.7-1.2,1.8-2.1,2.7-3.2c0.6-0.7,1.4-2.3,1-3.2c-0.5-1.2-2.2,0-3,0.8c0-1.4-0.3-3-1.4-3.8
				c-1.6-1.2-3.7-0.8-5.4,0c-3.7,1.8-0.8,7.4-0.4,10.2c0,0.3,0,0.5,0,0.8c-2.3-6.3-4.4-12.7-6-19.3c0,0,0-0.1,0-0.1
				c0.3-0.5,0.5-1.1,0.5-1.7c3.3-2.4,5.2-6.4,5.9-10.4c0.1-0.7,0.7-5.3-1.3-4.9c-1.8,0.4-3,3.1-3.8,4.5c-1.1,1.9-2.2,4.1-2.7,6.2
				c-0.6-0.3-1.3-0.2-2.2,0.4c0,0,0,0,0,0c-0.1-0.1-0.2-0.2-0.3-0.1c-0.3,0-0.6,0.1-0.9,0.3c-0.7-2.7-2.3-5.6-4.3-7.5
				c-1.7-1.6-4.4-2.1-5.6,0.3c-1.1,2.3,1,5.1,2.4,6.7c1.5,1.8,3.8,4,6.2,4.5c0.1,0.6,0.4,1.2,0.7,1.7c0,0,0,0,0,0.1
				c-0.1,0-0.2,0.1-0.2,0.2c-1.2,2.3-6.2,21.6-9.7,35.5c-1.4-0.7-2.9-1.3-4.4-1.9c-2.1-0.9-3.2-2.4-4.5-4.2
				c-1.7-2.4-3.5,0.1-3.8,2.2c-0.7,6.5,4.7,11.2,10.3,13.1c-0.3,1.1-0.5,2.1-0.8,2.9c-2.8,0.5-6.1,0-8.2-2.1
				c-1.2-1.2-1.9-2.3-3.6-2.4c-0.1-0.1-0.2-0.2-0.4-0.1c-1.7,0.7-1.6,2.4-1.2,4c0.5,2,0.9,4.2,1.7,6c0.9,2.1,3.3,2.7,5.3,3.1
				c1.2,0.3,2.5,0.3,3.8,0.4c0.3,0,0.7,0.1,1,0c0.4,1.9,2.1,2,4.2,2.2c4.9,0.5,9.3,3,14.2,3.5c4.3,0.4,8.6-1.1,12.4-2.9
				c2.9-1.4,7.4-3.3,9-6.4c0,0,0,0,0-0.1c0.1-0.1,0.1-0.3,0.1-0.4c0.1,0,0.1-0.1,0.2-0.1c0.5-0.6,1.2-1.3,1.9-1.7
				c0.1-0.1,0.2-0.2,0.2-0.3c1.5,1,3.4,1.6,4.9,2.1c2.2,0.7,5.6,1.7,7.8,0.5c2,2.8,8.3,3.7,10.5,0.9c1.1-1.4,1.2-4.3,0.4-5.9
				c-0.8-1.5-3.4-1.1-5.1-0.7c0.7-1.1,0.6-2.5-1.4-2.5c-2,0-2.7,2-3.7,3.4c-3.6-2.5-8.2-3.7-11.2-6.9c0,0-0.1-0.1-0.1-0.1
				c-0.1-0.5-0.2-1-0.4-1.6c3.4,2.8,8.6,3.2,12.9,1.9c0,0,0.1,0.1,0.1,0.1c2.2,1.4,4.8,2.2,6.8,0.1c1.4-1.5,1.9-4,0.4-5.5
				c1-1.5,1.9-3.1,2.4-4.7c1.3-3.8,0.9-7.8-0.6-11.5c0.2,0.4,2.6,0.2,2.9,0.1c1-0.1,1.8-0.5,2.6-1.1c1.6-1.3,3.1-4.2,2.4-6.3
				C205.1,31.8,204.2,30.1,202.6,29.8z M172.3,31.7c0.7-0.7,1.7-1.2,2.7-1.5c1.4-0.5,4.9-1.2,4.4,1.3c0,0,0,0,0,0
				c-1.8,0.6-3.5,1.3-5,2.2c-1.1,0.7-2,1.5-2.8,2.6C171.4,34.8,171.2,32.8,172.3,31.7z M166.9,51.4c2.4,0.1,4.3,1.8,5.6,3.6
				c0.7,1,1.3,2,1.8,3.1c0.1,0.3,1.1,2.8,0.9,2.9c-1.7,1-2.8,2.6-3.4,4.5c-0.2,0.6-0.1,2.2-0.6,2.4c-0.3,0.2-0.6,0.4-0.8,0.7
				c-1.1-2.5-2.5-4.8-3.6-7.3c-1.2-2.9-2.5-5.9-3.7-8.8C164.4,52.4,165.8,52,166.9,51.4C166.9,51.4,166.9,51.4,166.9,51.4z
				 M157.3,29.9c0.6-1.8,3.5-2.3,5.1-1.8c1.9,0.6,2,3.2,1.8,4.8c-0.1,0.4,0.6,0.5,0.7,0c0,0,0,0,0,0c0,0,0,0,0.1-0.1
				c0.4-0.5,0.9-0.9,1.5-1.3c0.2-0.1,0.5-0.3,0.7-0.3c0.4-0.1,0.2,0.7,0.1,0.9c-0.5,1.8-2,2.8-3,4.3c-1.6,2.2-0.4,4.8,0.3,7.1
				c0.8,2.4,1.5,4.8,2,7.2c0,0,0,0,0,0.1c-1,0.8-2.6,1.1-3.8,1.2c-0.5-1.3-1.1-2.6-1.6-3.8c-1.3-3.2-2.7-6.2-2.8-9.7
				C158.4,35.4,156.3,32.8,157.3,29.9z M151.1,13.3c0.3-1.7,1.2-3.3,1.9-4.8c0.9-1.7,1.8-3.5,3.2-4.8c2-1.9,1.2,4,1,4.7
				c-0.7,3.3-2.4,6.5-5,8.6c0-1.4-0.5-2.7-1.3-3.4C151,13.5,151.1,13.4,151.1,13.3z M145.6,17.1c-1.9-0.4-3.6-2.1-4.8-3.4
				c-1.5-1.6-3.4-3.9-3.2-6.2c0.1-1.2,1.4-2,2.5-2c1.3,0.1,2.4,1.3,3.1,2.2c1.5,1.8,2.7,4.1,3.3,6.4C145.7,14.9,145.5,16,145.6,17.1
				z M148.1,14.2c0.1,0,0.2,0,0.2-0.1c0.1,0.1,0.3,0.2,0.5,0c1.5-1.1,2.5,0.4,2.8,1.8c0.1,0.5,0.2,1,0.1,1.5
				c-0.1,0.1-0.1,0.3-0.1,0.4c-0.2,0.9-0.6,1.8-1.4,2.3C146.6,22.4,144.5,14.5,148.1,14.2z M124.4,52.7c0-0.5,0-0.9,0-1.4
				c0.1-1.4,1.7-3.1,2.8-1.4c0.6,0.9,1.1,1.8,2,2.5c2.1,1.7,4.7,2.3,7,3.5c-0.7,2.9-1.4,5.6-2,7.8C129.2,62,124.8,58.3,124.4,52.7z
				 M131.5,75.2c-0.3,0-0.6,0.3-0.3,0.6c-0.7-0.6-3.6-0.5-4.7-0.7c-1.7-0.4-3.5-1-4.3-2.7c-0.6-1.2-0.7-2.7-1-4.1
				c-0.4-1.4-1.6-3.8-0.1-4.8c0,0,0,0,0,0c2.6-0.1,3.6,2.7,5.8,3.7c2,0.9,4.2,1.2,6.3,0.8c-0.2,0.8-0.4,1.3-0.4,1.5
				C132.1,71.4,131.4,73.2,131.5,75.2z M149.4,81.3c-2.4-0.7-5-1.2-7.4-1.9c-2-0.7-4.1-1.3-6.2-1.5c-1.6-0.2-3.3,0-3.6-2
				c-0.3-2.1,0.5-4.1,1.2-6.1c0.1-0.2,0.3-0.9,0.5-1.9c0.1-0.1,0.2-0.3,0.1-0.4c0.2-0.8,0.5-1.9,0.8-3.1c0-0.1,0.1-0.2,0.1-0.2
				c3.3-12.7,11-42.5,11.8-44c0,0,0-0.1,0-0.1c0,0,0,0,0,0c0.9,1,2.2,1.5,3.8,0.7c0.3-0.1,0.5-0.3,0.7-0.5
				c2.3,8.9,5.6,17.6,8.7,26.3c2.9,8,10.5,23.3,11.1,25.5C171,75.1,155.5,83,149.4,81.3z M171.5,71.3c-0.2-0.7-0.7-1.5-0.7-2
				c0.1-1.9,1.9,0.1,2.4,0.5C172.6,70.2,172.2,70.6,171.5,71.3z M175.7,61.7c3.2,3.1,7.8,4.4,11.4,6.9c0.2,0.1,0.4,0,0.5-0.1
				c0.1,0,0.1-0.1,0.2-0.1c0.3-0.5,0.7-1,1-1.4c0.5-0.7,1.1-1.5,2.1-1.6c1.5-0.2,1.4,1.4,0.4,2c-0.2,0.2,0,0.7,0.3,0.6
				c1.5-0.4,3.5-0.9,5-0.1c1.5,0.7,0.5,4.5-0.1,5.5c-0.9,1.5-3.4,1.4-4.9,1.2c-1.6-0.2-3.6-0.7-4.5-2.1c0.3-0.3-0.2-0.7-0.5-0.5
				c-2,1.5-5.6,0.4-7.7-0.3c-2.2-0.7-5.5-1.8-6.7-3.9c0.1-2.4,1.1-4.7,3.2-6C175.4,61.8,175.6,61.8,175.7,61.7z M194.6,61.1
				c-1.5,1.6-3.7,0.8-5.4-0.1c0.7-0.3,1.3-0.5,2-0.9c1.6-0.9,2.9-2.2,4.1-3.6C196.5,57.8,195.8,59.9,194.6,61.1z M204.4,35.3
				c-0.8,2.4-2.8,4.3-5.4,4c-0.5-0.1-1.8-0.9-2.3-0.5c-0.2,0.1,0.9,3.7,1,4.2c0.3,1.5,0.5,3.1,0.4,4.6c-0.2,3-1.4,6.1-3.3,8.5
				c-1.1,1.3-2.5,2.5-3.9,3.4c-4.5,2.7-12.3,2.7-15.9-1.6c-1-2.4-2.8-4.8-5-6.2c-2.8-5.7-0.1-14.2,5.1-17.5
				c5.1-3.2,13.6-4.3,18.5-0.3c0.7,0.6,0.7-1,0.9-1.4c0.4-0.8,1.1-1.1,1.9-1.1c0.4,0,0.8,0.1,1.2,0.3c0.7,0.3,1.3,0.7,2,1
				c1,0.4,1.9,0.5,2.9-0.1c0.5-0.3,0.9-0.9,1-1.4c0.1,0.1,0.2,0.2,0.3,0.3C205,32.7,204.9,33.8,204.4,35.3z"/>
			<path fill="#7EC7D3" d="M180.9,54.4c-0.4,0.2-0.8,0.3-1.3,0.4c-3.9,0.5-6.7-3.9-5.8-7.3c1.1-3.9,5.9-4.4,8.8-2
				C185.6,48.1,184.1,52.9,180.9,54.4z"/>
			<path fill="#010101" d="M182.8,44.8c-2.7-2.3-7-1.9-9.1,1.1c-3.8,5.5,3.9,12.3,8.7,8.7C186.2,51.8,185.6,47.2,182.8,44.8z
				 M180.9,54.4c-0.4,0.2-0.8,0.3-1.3,0.4c-3.9,0.5-6.7-3.9-5.8-7.3c1.1-3.9,5.9-4.4,8.8-2C185.6,48.1,184.1,52.9,180.9,54.4z"/>
			<path fill="#010101" d="M180.3,40.9c0.3-0.2,0.6-0.7,0.6-1.2c0-0.2,0-0.3,0-0.5c-0.3-1.8-2.5-1.8-3-0.5
				C178.8,39.4,179.6,40.1,180.3,40.9z"/>
			<path fill="#010101" d="M189.8,52.1c0.6-0.1,1.1-0.6,1.2-1.4c0-0.2,0-0.3,0-0.5c-0.3-1.8-2.4-1.8-2.9-0.7
				C188.8,50.2,189.4,51.1,189.8,52.1z"/>
			<path fill="#FFF5D4" d="M203.9,31.5c-0.1-0.1-0.2-0.2-0.3-0.3c-0.2,0.6-0.5,1.1-1,1.4c-1,0.6-1.9,0.5-2.9,0.1
				c-0.7-0.3-1.3-0.8-2-1c-0.4-0.2-0.8-0.3-1.2-0.3c-0.8-0.1-1.6,0.3-1.9,1.1c-1.5,3.1,1.2,6.5,4.5,6.8c2.7,0.3,4.6-1.6,5.4-4
				C204.9,33.8,205,32.7,203.9,31.5z"/>
			<path fill="#FFE8B0" d="M198.3,37.4c-1.6-0.3-3.2-1-4.2-2.3c0.4,2.2,2.4,4,4.8,4.2c2.7,0.3,4.6-1.6,5.4-4
				c0.3-0.8,0.4-1.5,0.3-2.2C203.8,35.8,201.5,37.9,198.3,37.4z"/>
			<path fill="#FFF5D4" d="M183.4,36.5c-0.6-0.6-1.5-0.9-2.3-0.9c-0.4,0-0.7,0.2-0.7,0.7c0,0.3,0.3,0.7,0.7,0.7c0.3,0,0.6,0,0.8,0.2
				c0.1,0,0.2,0.1,0.3,0.1c0,0,0.1,0.1,0.1,0.1c0,0,0,0,0,0c0,0,0,0,0,0C183,38,184.1,37.1,183.4,36.5z"/>
			<path fill="#FFF5D4" d="M193.5,48.8c-0.2-0.7-0.5-1.4-1-2c-0.6-0.7-1.6,0.3-1,0.9c0.3,0.4,0.5,0.9,0.7,1.3
				c0.1,0.4,0.4,0.6,0.8,0.5C193.3,49.6,193.6,49.2,193.5,48.8z"/>
			<g>
				<path fill="#B1E2F2" d="M178.1,48.8c-1.3-0.3-3.1,0-4.3,1.4c-3.1,3.7,3.9,8.5,6,3.9C180.8,51.8,179.9,49.2,178.1,48.8z
					 M178.6,53.3c-0.4,1-1.3,1.4-2.3,1.1c-0.9-0.2-1.6-0.9-1.8-1.7c-0.1-0.4-0.2-1.1,0.4-1.8c0.7-0.9,1.9-1.1,2.6-0.9l0-0.1v0l0,0.1
					c0.5,0.1,0.8,0.5,1.1,1C178.9,51.7,178.9,52.6,178.6,53.3z"/>
				<g>
					<path fill="#010101" d="M178.9,48.8c-1.4-0.8-3.3-0.5-4.8,0.6c-4.5,3.5,2.6,9.9,5.6,5.2C181.1,52.6,180.6,49.7,178.9,48.8z
						 M179.8,54.1c-2.3,4.6-9.1-0.6-5.8-4.1c1.2-1.3,3-1.6,4.3-1.2C180.1,49.4,180.9,52,179.8,54.1z"/>
					<path fill="#010101" d="M178.1,50c-0.1-0.1-0.3-0.1-0.4-0.2c-0.8-0.3-1.9,0-2.7,0.6c-0.7,0.6-1.1,1.4-0.9,2.2
						c0.2,1,1,1.9,2,2.2c0,0,0,0,0,0c1,0.3,2,0,2.6-1c0.4-0.7,0.6-1.6,0.4-2.4C178.9,50.8,178.6,50.2,178.1,50z M178.5,53.4
						c-0.5,0.9-1.3,1.3-2.3,1c-0.8-0.3-1.6-1-1.8-1.8c-0.1-0.4-0.1-1.1,0.5-1.8c0.8-0.8,1.9-1,2.7-0.7l0-0.1v0l0,0.1
						c0.5,0.1,0.8,0.5,1,1C178.9,51.9,178.9,52.7,178.5,53.4z"/>
				</g>
			</g>
			<g>
				<path fill="#010101" d="M180.2,47.4c-1.2-0.9-3-0.5-3.7,0.8c-0.9,1.7,0.8,3.5,2.4,3.7C181.5,52.2,182,48.7,180.2,47.4z
					 M180.7,50.4c-0.2,0.5-0.7,0.8-1.2,0.9c-0.4,0.1-0.8-0.1-1.2-0.3c-1.2-0.3-1.8-1.5-1.2-2.7c0.6-1.1,2.2-1.1,3-0.4
					C180.7,48.6,181,49.6,180.7,50.4z"/>
				<path fill="#B1E2F2" d="M180.7,50.4c-0.2,0.5-0.7,0.8-1.2,0.9c-0.4,0.1-0.8-0.1-1.2-0.3c-1.2-0.3-1.8-1.5-1.2-2.7
					c0.6-1.1,2.2-1.1,3-0.4C180.7,48.6,181,49.6,180.7,50.4z"/>
			</g>
			<path fill="#7EC7D3" d="M168.4,61.5c-1.7-1.6-2.7-4.1-3.5-6.2c-0.4-1-0.6-2-0.8-3c-0.3,0.1-0.7,0.1-1,0.2c1.2,3,2.4,5.9,3.7,8.8
				c1,2.5,2.5,4.8,3.6,7.3c0.2-0.3,0.5-0.5,0.8-0.7c0.5-0.3,0.4-1.8,0.6-2.4c0.6-1.9,1.6-3.5,3.4-4.5c0.1-0.1,0-0.5-0.2-1
				C173.5,62.4,170.9,63.9,168.4,61.5z"/>
			<path fill="#FDD8C0" d="M164.2,51.6c0.7-0.2,2-0.6,2.5-1c0,0,0,0,0-0.1c-0.6-2.4-1.3-4.8-2-7.2c-0.7-2.2-1.9-4.9-0.3-7.1
				c1-1.4,2.5-2.5,3-4.3c0.1-0.2,0.3-1-0.1-0.9c-0.3,0.1-0.5,0.2-0.7,0.3c-0.6,0.3-1,0.8-1.5,1.3c0,0,0,0-0.1,0.1c0,0,0,0,0,0
				c-0.1,0.4-0.7,0.4-0.7,0c0.2-1.6,0.1-4.2-1.8-4.8c-1.6-0.5-4.5,0-5.1,1.8c-0.8,2.4,0.4,4.5,1,6.8
				C158.4,36.9,160.2,37.5,164.2,51.6z"/>
			<path fill="#FDD8C0" d="M177,68.6c2.3,1.4,5,1.6,7.6,2.3c2.9,0.8,5.3,2.7,8.2,3.3c0.7,0.1,1.3,0.2,1.9,0.1
				c0.7-0.2,1.3-0.5,1.6-1.1c0.6-1,1.6-4.7,0.1-5.5c-1.5-0.7-3.4-0.2-5,0.1c-0.3,0.1-0.5-0.4-0.3-0.6c1-0.6,1.1-2.2-0.4-2
				c-0.9,0.1-1.5,0.9-2.1,1.6c-0.3,0.5-0.7,1-1,1.4c0,0.1-0.1,0.1-0.2,0.1c-0.1,0.2-0.3,0.3-0.5,0.1c-3.5-2.5-7.7-3.9-11-6.6
				C174.8,63.2,174.3,66.9,177,68.6z"/>
			<path fill="#7EC7D3" d="M124.8,50.2c-0.2,0.3-0.3,0.8-0.4,1.1c0,0.5,0,0.9,0,1.4c0.4,5.6,4.8,9.3,9.8,11c0.3-1.3,0.7-2.8,1.1-4.4
				C130.8,57.6,126.1,54.7,124.8,50.2z"/>
			<path fill="#7EC7D3" d="M131.5,75.2c0-1.3,0.2-2.5,0.6-3.7c-2.4-0.1-4.8-0.7-7-1.6c-1.6-0.7-3.2-1.7-4.5-3c0.2,0.5,0.3,1,0.5,1.4
				c0.4,1.3,0.4,2.8,1,4.1c0.8,1.7,2.6,2.3,4.3,2.7c1.1,0.2,4.1,0.1,4.7,0.7C130.9,75.6,131.2,75.2,131.5,75.2z"/>
			<path fill="#EDDBD1" d="M162.9,53.7c0.6,4.1,0.7,8.5-0.5,12.4c-1.4,4.7-5,8.4-10,9c-6.7,0.8-13.5-2.2-18.7-6.5
				c-0.2,0.6-0.3,1-0.3,1.1c-0.7,1.9-1.5,4-1.2,6.1c0.3,2,1.9,1.8,3.6,2c2.1,0.2,4.2,0.9,6.2,1.5c2.4,0.8,5,1.2,7.4,1.9
				c6.1,1.8,21.6-6.2,21.6-9.3C170.6,70.3,166.3,61.4,162.9,53.7z"/>
			<path fill="#F8ECE4" d="M150.2,20.1c0.8-0.5,1.3-1.4,1.4-2.3c-0.1-0.1-0.1-0.3,0.1-0.4c0-0.5,0-1-0.1-1.5
				c-0.3-1.3-1.3-2.8-2.8-1.8c-0.2,0.1-0.4,0.1-0.5,0c0,0.1-0.1,0.1-0.2,0.1C144.5,14.5,146.6,22.4,150.2,20.1z"/>
			<path fill="#EDDBD1" d="M147.3,14.4c-2.4,1.3-0.4,7.8,2.9,5.7c0.3-0.2,0.5-0.4,0.7-0.6C149,18.5,147.6,16.5,147.3,14.4z"/>
		</g>
		<path fill="#EFE1DC" d="M77.3,115.1c-1.2-5.4,2.2-10.2,6.2-13.4c4.2-3.4,8.8-6.2,12.6-10.2c0.2-0.3,0.5-0.5,0.7-0.8
			c-2.3,1.9-5.4,2.9-8.3,3.6c-7.8,1.8-15.4,1.9-23.2,0.1c-2-0.5-3.9-1-5.8-1.7c-0.1,0-0.2,0-0.2-0.1c0,0,0,0,0,0
			c-0.7-0.3-1.5-0.6-2.2-0.9c-3.2-1.5-5.6-3.4-7.6-6.3c-3.9,2.2-8.1-0.8-10.5-3.9c-1.2-1.6-1.9-3.2-2.5-5.1
			c-0.1-0.5-0.3-1.4-0.8-1.6c-0.8-0.5-2,0.1-2.6,0.7c-1.1,1-2,2.2-2.4,3.6c0,0.1-0.1,0.1-0.1,0.1c-2.3,8.2,4,16.3,9.4,21.7
			c3.6,3.5,7.5,6.8,11.7,9.5c2.1,1.4,4.4,2.5,6.7,3.6c1.9,0.9,4.2,2.3,4.4,4.6c0.2,1.8,0.2,5.5,2.8,5.5c3.1,0,6.5-1.7,9.4-2.9
			c1.4-0.6,2.8-1.2,4.2-1.8C78.3,118,77.7,116.6,77.3,115.1z"/>
		<path fill="#EF9526" d="M62.9,123.5c-14.8,5.4-30.7,6.5-46.3,8.4c-0.1,0-0.1,0-0.1,0.1c-2.1,0.5-3.8,1.8-5.4,3.3
			c-1.8,1.7-3.7,3.7-6.3,4c0-1.3,2-2.5,3.5-3.3c0.7-0.3,1.3-0.5,1.6-1.2c-0.9-0.3-2.2,0.9-3.2,1.2c-1.9,0.5-2.7,0.7-3.6,0.5
			c1.2-1.9,3.8-2.6,5.7-3.3c2.2-0.8,4.4-1.4,6.5-2.3c0.1-0.1,0.2-0.2,0.2-0.4c-0.4-2.3-0.3-4.9,1.2-6.5c1.4-1.3,2.2-1.5,1.9-0.5
			c-0.2,1.4-1.8,3.2-2.2,4.4c-1.4,4.6,1.4,3.1,8.5,2.5c5.1-0.4,22.7-3.3,26.4-4.3c1.9-0.5,3.8-1.2,5.7-1.8c1.9-0.7,3.8-1.7,5.7-2.2
			c0,0,0,0.1,0.1,0.1c0.1,0.5,0.3,0.9,0.6,1.3l-0.2,0C63,123.3,62.9,123.4,62.9,123.5z"/>
	</g>
</g>
</svg>
